<svg width="230" height="112" viewBox="0 0 230 112" fill="none" xmlns="http://www.w3.org/2000/svg">
<g filter="url(#filter0_d_65_4)">
<mask id="path-1-outside-1_65_4" maskUnits="userSpaceOnUse" x="27" y="40" width="162" height="29" fill="black">
<rect fill="white" x="27" y="40" width="162" height="29"/>
<path d="M44.6944 62L42.2778 56.0278H31.6389L29.2222 62H28.5139L36.5278 42.0833H37.4167L45.4306 62H44.6944ZM31.875 55.4028H42.0556L36.9583 42.8056L31.875 55.4028ZM50.7483 42.0833V62H50.0678V42.0833H50.7483ZM69.3161 48.2639H69.9967V61.3194C69.9967 62.5139 69.7143 63.6157 69.1494 64.625C68.5846 65.6435 67.7883 66.4537 66.7606 67.0556C65.742 67.6667 64.6031 67.9722 63.3439 67.9722C62.0013 67.9722 60.7791 67.7361 59.6772 67.2639C58.5754 66.7917 57.7698 66.1574 57.2606 65.3611L57.7744 64.9861C58.2004 65.6991 58.9226 66.2685 59.9411 66.6944C60.9596 67.1296 62.0939 67.3472 63.3439 67.3472C64.4643 67.3472 65.4828 67.0694 66.3994 66.5139C67.3254 65.9583 68.043 65.2222 68.5522 64.3056C69.0615 63.3889 69.3161 62.3935 69.3161 61.3194V57.6806C68.8809 59.1065 68.0846 60.2315 66.9272 61.0556C65.7791 61.8704 64.4133 62.2778 62.83 62.2778C61.8485 62.2778 60.918 62.0926 60.0383 61.7222C59.1587 61.3426 58.4041 60.838 57.7744 60.2083C57.1448 59.5694 56.6448 58.8102 56.2744 57.9306C55.9041 57.0417 55.7189 56.1019 55.7189 55.1111C55.7189 54.1204 55.9041 53.1852 56.2744 52.3056C56.6448 51.4259 57.1448 50.6713 57.7744 50.0417C58.4041 49.4028 59.1587 48.8981 60.0383 48.5278C60.918 48.1574 61.8485 47.9722 62.83 47.9722C64.4133 47.9722 65.7791 48.3843 66.9272 49.2083C68.0846 50.0324 68.8809 51.1574 69.3161 52.5833V48.2639ZM62.83 61.6528C64.7189 61.6528 66.2698 61.0417 67.4828 59.8194C68.705 58.588 69.3161 57.0185 69.3161 55.1111C69.3161 53.2222 68.705 51.6667 67.4828 50.4444C66.2698 49.213 64.7189 48.5972 62.83 48.5972C61.0152 48.5972 59.4781 49.2269 58.2189 50.4861C56.9689 51.7454 56.3439 53.287 56.3439 55.1111C56.3439 56.9444 56.9689 58.4954 58.2189 59.7639C59.4781 61.0231 61.0152 61.6528 62.83 61.6528ZM76.8839 42.0833H87.2589V42.7083H77.5644V50.7639H86.2033V51.3889H77.5644V61.375H87.2589V62H76.8839V42.0833ZM103.091 62H102.313L97.4239 55.4306L92.535 62H91.7572L97.0489 54.9167L92.0767 48.2639H92.8406L97.4239 54.4028L102.007 48.2639H102.771L97.8267 54.9167L103.091 62ZM115.228 47.9722C116.209 47.9722 117.14 48.162 118.019 48.5417C118.899 48.912 119.654 49.4167 120.283 50.0556C120.913 50.6852 121.413 51.4444 121.783 52.3333C122.154 53.213 122.339 54.1481 122.339 55.1389C122.339 56.1296 122.154 57.0648 121.783 57.9444C121.413 58.8241 120.913 59.5833 120.283 60.2222C119.654 60.8519 118.899 61.3519 118.019 61.7222C117.14 62.0926 116.209 62.2778 115.228 62.2778C113.644 62.2778 112.274 61.8704 111.117 61.0556C109.969 60.2315 109.177 59.1065 108.742 57.6806V67.6389H108.061V48.2639H108.742V52.5833C109.177 51.1574 109.969 50.0324 111.117 49.2083C112.274 48.3843 113.644 47.9722 115.228 47.9722ZM115.228 61.6528C117.043 61.6528 118.575 61.0231 119.825 59.7639C121.084 58.5046 121.714 56.963 121.714 55.1389C121.714 53.3056 121.084 51.7593 119.825 50.5C118.575 49.2315 117.043 48.5972 115.228 48.5972C113.339 48.5972 111.783 49.213 110.561 50.4444C109.348 51.6667 108.742 53.2315 108.742 55.1389C108.742 57.0278 109.348 58.588 110.561 59.8194C111.783 61.0417 113.339 61.6528 115.228 61.6528ZM128.559 42.0833V62H127.879V42.0833H128.559ZM137.03 48.9167C138.113 48.287 139.299 47.9722 140.586 47.9722C141.873 47.9722 143.058 48.287 144.141 48.9167C145.234 49.5463 146.095 50.412 146.724 51.5139C147.354 52.6157 147.669 53.8241 147.669 55.1389C147.669 56.1204 147.484 57.0556 147.113 57.9444C146.743 58.8241 146.238 59.5833 145.599 60.2222C144.97 60.8519 144.215 61.3519 143.336 61.7222C142.465 62.0926 141.549 62.2778 140.586 62.2778C139.299 62.2778 138.113 61.9676 137.03 61.3472C135.947 60.7176 135.09 59.8565 134.461 58.7639C133.84 57.662 133.53 56.4537 133.53 55.1389C133.53 53.8241 133.84 52.6157 134.461 51.5139C135.09 50.412 135.947 49.5463 137.03 48.9167ZM140.586 48.5972C138.799 48.5972 137.289 49.2315 136.058 50.5C134.836 51.7593 134.224 53.3056 134.224 55.1389C134.224 56.963 134.836 58.5046 136.058 59.7639C137.289 61.0231 138.799 61.6528 140.586 61.6528C142.363 61.6528 143.873 61.0231 145.113 59.7639C146.363 58.4954 146.988 56.9537 146.988 55.1389C146.988 53.3056 146.363 51.7593 145.113 50.5C143.873 49.2315 142.363 48.5972 140.586 48.5972ZM157.959 47.9722C158.533 47.9722 159.038 48.0694 159.473 48.2639L159.376 48.9167C158.968 48.7037 158.496 48.5972 157.959 48.5972C156.866 48.5972 155.913 49.0231 155.098 49.875C154.292 50.7176 153.889 51.7176 153.889 52.875V62H153.209V48.2639H153.889V50.9861C154.232 50.0972 154.778 49.375 155.528 48.8194C156.288 48.2546 157.098 47.9722 157.959 47.9722ZM175.652 54.6944H162.999V55.0556C162.999 56.9537 163.591 58.5278 164.777 59.7778C165.971 61.0278 167.434 61.6528 169.166 61.6528C170.434 61.6528 171.559 61.3981 172.541 60.8889C173.522 60.3704 174.263 59.6481 174.763 58.7222L175.304 59.0417C174.758 60.0417 173.939 60.8333 172.846 61.4167C171.763 61.9907 170.536 62.2778 169.166 62.2778C167.249 62.2778 165.624 61.5926 164.291 60.2222C162.966 58.8519 162.304 57.1296 162.304 55.0556C162.304 53.7593 162.61 52.5694 163.221 51.4861C163.832 50.3935 164.661 49.537 165.707 48.9167C166.763 48.287 167.916 47.9722 169.166 47.9722C170.999 47.9722 172.536 48.6019 173.777 49.8611C175.027 51.1111 175.652 52.662 175.652 54.5139V54.6944ZM169.166 48.5972C167.601 48.5972 166.249 49.1157 165.11 50.1528C163.971 51.1898 163.286 52.4954 163.054 54.0694H174.971C174.897 52.5231 174.304 51.2269 173.193 50.1806C172.082 49.125 170.74 48.5972 169.166 48.5972ZM185.956 47.9722C186.53 47.9722 187.034 48.0694 187.469 48.2639L187.372 48.9167C186.965 48.7037 186.493 48.5972 185.956 48.5972C184.863 48.5972 183.909 49.0231 183.094 49.875C182.289 50.7176 181.886 51.7176 181.886 52.875V62H181.206V48.2639H181.886V50.9861C182.229 50.0972 182.775 49.375 183.525 48.8194C184.284 48.2546 185.094 47.9722 185.956 47.9722Z"/>
</mask>
<path d="M44.6944 62L42.2778 56.0278H31.6389L29.2222 62H28.5139L36.5278 42.0833H37.4167L45.4306 62H44.6944ZM31.875 55.4028H42.0556L36.9583 42.8056L31.875 55.4028ZM50.7483 42.0833V62H50.0678V42.0833H50.7483ZM69.3161 48.2639H69.9967V61.3194C69.9967 62.5139 69.7143 63.6157 69.1494 64.625C68.5846 65.6435 67.7883 66.4537 66.7606 67.0556C65.742 67.6667 64.6031 67.9722 63.3439 67.9722C62.0013 67.9722 60.7791 67.7361 59.6772 67.2639C58.5754 66.7917 57.7698 66.1574 57.2606 65.3611L57.7744 64.9861C58.2004 65.6991 58.9226 66.2685 59.9411 66.6944C60.9596 67.1296 62.0939 67.3472 63.3439 67.3472C64.4643 67.3472 65.4828 67.0694 66.3994 66.5139C67.3254 65.9583 68.043 65.2222 68.5522 64.3056C69.0615 63.3889 69.3161 62.3935 69.3161 61.3194V57.6806C68.8809 59.1065 68.0846 60.2315 66.9272 61.0556C65.7791 61.8704 64.4133 62.2778 62.83 62.2778C61.8485 62.2778 60.918 62.0926 60.0383 61.7222C59.1587 61.3426 58.4041 60.838 57.7744 60.2083C57.1448 59.5694 56.6448 58.8102 56.2744 57.9306C55.9041 57.0417 55.7189 56.1019 55.7189 55.1111C55.7189 54.1204 55.9041 53.1852 56.2744 52.3056C56.6448 51.4259 57.1448 50.6713 57.7744 50.0417C58.4041 49.4028 59.1587 48.8981 60.0383 48.5278C60.918 48.1574 61.8485 47.9722 62.83 47.9722C64.4133 47.9722 65.7791 48.3843 66.9272 49.2083C68.0846 50.0324 68.8809 51.1574 69.3161 52.5833V48.2639ZM62.83 61.6528C64.7189 61.6528 66.2698 61.0417 67.4828 59.8194C68.705 58.588 69.3161 57.0185 69.3161 55.1111C69.3161 53.2222 68.705 51.6667 67.4828 50.4444C66.2698 49.213 64.7189 48.5972 62.83 48.5972C61.0152 48.5972 59.4781 49.2269 58.2189 50.4861C56.9689 51.7454 56.3439 53.287 56.3439 55.1111C56.3439 56.9444 56.9689 58.4954 58.2189 59.7639C59.4781 61.0231 61.0152 61.6528 62.83 61.6528ZM76.8839 42.0833H87.2589V42.7083H77.5644V50.7639H86.2033V51.3889H77.5644V61.375H87.2589V62H76.8839V42.0833ZM103.091 62H102.313L97.4239 55.4306L92.535 62H91.7572L97.0489 54.9167L92.0767 48.2639H92.8406L97.4239 54.4028L102.007 48.2639H102.771L97.8267 54.9167L103.091 62ZM115.228 47.9722C116.209 47.9722 117.14 48.162 118.019 48.5417C118.899 48.912 119.654 49.4167 120.283 50.0556C120.913 50.6852 121.413 51.4444 121.783 52.3333C122.154 53.213 122.339 54.1481 122.339 55.1389C122.339 56.1296 122.154 57.0648 121.783 57.9444C121.413 58.8241 120.913 59.5833 120.283 60.2222C119.654 60.8519 118.899 61.3519 118.019 61.7222C117.14 62.0926 116.209 62.2778 115.228 62.2778C113.644 62.2778 112.274 61.8704 111.117 61.0556C109.969 60.2315 109.177 59.1065 108.742 57.6806V67.6389H108.061V48.2639H108.742V52.5833C109.177 51.1574 109.969 50.0324 111.117 49.2083C112.274 48.3843 113.644 47.9722 115.228 47.9722ZM115.228 61.6528C117.043 61.6528 118.575 61.0231 119.825 59.7639C121.084 58.5046 121.714 56.963 121.714 55.1389C121.714 53.3056 121.084 51.7593 119.825 50.5C118.575 49.2315 117.043 48.5972 115.228 48.5972C113.339 48.5972 111.783 49.213 110.561 50.4444C109.348 51.6667 108.742 53.2315 108.742 55.1389C108.742 57.0278 109.348 58.588 110.561 59.8194C111.783 61.0417 113.339 61.6528 115.228 61.6528ZM128.559 42.0833V62H127.879V42.0833H128.559ZM137.03 48.9167C138.113 48.287 139.299 47.9722 140.586 47.9722C141.873 47.9722 143.058 48.287 144.141 48.9167C145.234 49.5463 146.095 50.412 146.724 51.5139C147.354 52.6157 147.669 53.8241 147.669 55.1389C147.669 56.1204 147.484 57.0556 147.113 57.9444C146.743 58.8241 146.238 59.5833 145.599 60.2222C144.97 60.8519 144.215 61.3519 143.336 61.7222C142.465 62.0926 141.549 62.2778 140.586 62.2778C139.299 62.2778 138.113 61.9676 137.03 61.3472C135.947 60.7176 135.09 59.8565 134.461 58.7639C133.84 57.662 133.53 56.4537 133.53 55.1389C133.53 53.8241 133.84 52.6157 134.461 51.5139C135.09 50.412 135.947 49.5463 137.03 48.9167ZM140.586 48.5972C138.799 48.5972 137.289 49.2315 136.058 50.5C134.836 51.7593 134.224 53.3056 134.224 55.1389C134.224 56.963 134.836 58.5046 136.058 59.7639C137.289 61.0231 138.799 61.6528 140.586 61.6528C142.363 61.6528 143.873 61.0231 145.113 59.7639C146.363 58.4954 146.988 56.9537 146.988 55.1389C146.988 53.3056 146.363 51.7593 145.113 50.5C143.873 49.2315 142.363 48.5972 140.586 48.5972ZM157.959 47.9722C158.533 47.9722 159.038 48.0694 159.473 48.2639L159.376 48.9167C158.968 48.7037 158.496 48.5972 157.959 48.5972C156.866 48.5972 155.913 49.0231 155.098 49.875C154.292 50.7176 153.889 51.7176 153.889 52.875V62H153.209V48.2639H153.889V50.9861C154.232 50.0972 154.778 49.375 155.528 48.8194C156.288 48.2546 157.098 47.9722 157.959 47.9722ZM175.652 54.6944H162.999V55.0556C162.999 56.9537 163.591 58.5278 164.777 59.7778C165.971 61.0278 167.434 61.6528 169.166 61.6528C170.434 61.6528 171.559 61.3981 172.541 60.8889C173.522 60.3704 174.263 59.6481 174.763 58.7222L175.304 59.0417C174.758 60.0417 173.939 60.8333 172.846 61.4167C171.763 61.9907 170.536 62.2778 169.166 62.2778C167.249 62.2778 165.624 61.5926 164.291 60.2222C162.966 58.8519 162.304 57.1296 162.304 55.0556C162.304 53.7593 162.61 52.5694 163.221 51.4861C163.832 50.3935 164.661 49.537 165.707 48.9167C166.763 48.287 167.916 47.9722 169.166 47.9722C170.999 47.9722 172.536 48.6019 173.777 49.8611C175.027 51.1111 175.652 52.662 175.652 54.5139V54.6944ZM169.166 48.5972C167.601 48.5972 166.249 49.1157 165.11 50.1528C163.971 51.1898 163.286 52.4954 163.054 54.0694H174.971C174.897 52.5231 174.304 51.2269 173.193 50.1806C172.082 49.125 170.74 48.5972 169.166 48.5972ZM185.956 47.9722C186.53 47.9722 187.034 48.0694 187.469 48.2639L187.372 48.9167C186.965 48.7037 186.493 48.5972 185.956 48.5972C184.863 48.5972 183.909 49.0231 183.094 49.875C182.289 50.7176 181.886 51.7176 181.886 52.875V62H181.206V48.2639H181.886V50.9861C182.229 50.0972 182.775 49.375 183.525 48.8194C184.284 48.2546 185.094 47.9722 185.956 47.9722Z" fill="url(#paint0_linear_65_4)"/>
<path d="M44.6944 62L43.7675 62.3751L44.0203 63H44.6944V62ZM42.2778 56.0278L43.2048 55.6527L42.9519 55.0278H42.2778V56.0278ZM31.6389 56.0278V55.0278H30.9648L30.7119 55.6527L31.6389 56.0278ZM29.2222 62V63H29.8963L30.1492 62.3751L29.2222 62ZM28.5139 62L27.5862 61.6267L27.0336 63H28.5139V62ZM36.5278 42.0833V41.0833H35.8522L35.6001 41.71L36.5278 42.0833ZM37.4167 42.0833L38.3444 41.71L38.0922 41.0833H37.4167V42.0833ZM45.4306 62V63H46.9108L46.3583 61.6267L45.4306 62ZM31.875 55.4028L30.9477 55.0286L30.3931 56.4028H31.875V55.4028ZM42.0556 55.4028V56.4028H43.5389L42.9825 55.0277L42.0556 55.4028ZM36.9583 42.8056L37.8853 42.4305L36.9571 40.1364L36.031 42.4313L36.9583 42.8056ZM45.6214 61.6249L43.2048 55.6527L41.3508 56.4029L43.7675 62.3751L45.6214 61.6249ZM42.2778 55.0278H31.6389V57.0278H42.2778V55.0278ZM30.7119 55.6527L28.2952 61.6249L30.1492 62.3751L32.5659 56.4029L30.7119 55.6527ZM29.2222 61H28.5139V63H29.2222V61ZM29.4416 62.3733L37.4555 42.4566L35.6001 41.71L27.5862 61.6267L29.4416 62.3733ZM36.5278 43.0833H37.4167V41.0833H36.5278V43.0833ZM36.489 42.4566L44.5028 62.3733L46.3583 61.6267L38.3444 41.71L36.489 42.4566ZM45.4306 61H44.6944V63H45.4306V61ZM31.875 56.4028H42.0556V54.4028H31.875V56.4028ZM42.9825 55.0277L37.8853 42.4305L36.0313 43.1806L41.1286 55.7779L42.9825 55.0277ZM36.031 42.4313L30.9477 55.0286L32.8023 55.777L37.8857 43.1798L36.031 42.4313ZM50.7483 42.0833H51.7483V41.0833H50.7483V42.0833ZM50.7483 62V63H51.7483V62H50.7483ZM50.0678 62H49.0678V63H50.0678V62ZM50.0678 42.0833V41.0833H49.0678V42.0833H50.0678ZM49.7483 42.0833V62H51.7483V42.0833H49.7483ZM50.7483 61H50.0678V63H50.7483V61ZM51.0678 62V42.0833H49.0678V62H51.0678ZM50.0678 43.0833H50.7483V41.0833H50.0678V43.0833ZM69.3161 48.2639V47.2639H68.3161V48.2639H69.3161ZM69.9967 48.2639H70.9967V47.2639H69.9967V48.2639ZM69.1494 64.625L68.2768 64.1366L68.2749 64.14L69.1494 64.625ZM66.7606 67.0556L66.2552 66.1926L66.2461 66.1981L66.7606 67.0556ZM57.2606 65.3611L56.6711 64.5533L55.9114 65.1077L56.4181 65.8999L57.2606 65.3611ZM57.7744 64.9861L58.6329 64.4733L58.0706 63.532L57.185 64.1783L57.7744 64.9861ZM59.9411 66.6944L60.334 65.7748L60.3269 65.7719L59.9411 66.6944ZM66.3994 66.5139L65.8849 65.6564L65.8811 65.6587L66.3994 66.5139ZM68.5522 64.3056L67.6781 63.8199L68.5522 64.3056ZM69.3161 57.6806H70.3161L68.3597 57.3887L69.3161 57.6806ZM66.9272 61.0556L67.506 61.8711L67.5072 61.8702L66.9272 61.0556ZM60.0383 61.7222L59.6421 62.6404L59.6503 62.6439L60.0383 61.7222ZM57.7744 60.2083L57.0622 60.9103L57.0673 60.9154L57.7744 60.2083ZM56.2744 57.9306L55.3514 58.3152L55.3528 58.3186L56.2744 57.9306ZM57.7744 50.0417L58.4816 50.7488L58.4867 50.7436L57.7744 50.0417ZM66.9272 49.2083L66.3441 50.0207L66.3472 50.0229L66.9272 49.2083ZM69.3161 52.5833L68.3597 52.8752L70.3161 52.5833H69.3161ZM67.4828 59.8194L66.773 59.115L66.773 59.115L67.4828 59.8194ZM67.4828 50.4444L66.7703 51.1462L66.7757 51.1516L67.4828 50.4444ZM58.2189 50.4861L57.5118 49.779L57.5092 49.7816L58.2189 50.4861ZM58.2189 59.7639L57.5066 60.4658L57.5118 60.471L58.2189 59.7639ZM69.3161 49.2639H69.9967V47.2639H69.3161V49.2639ZM68.9967 48.2639V61.3194H70.9967V48.2639H68.9967ZM68.9967 61.3194C68.9967 62.3487 68.7553 63.2816 68.2768 64.1366L70.0221 65.1134C70.6732 63.9499 70.9967 62.679 70.9967 61.3194H68.9967ZM68.2749 64.14C67.7991 64.9981 67.132 65.6792 66.2552 66.1926L67.2659 67.9185C68.4447 67.2282 69.3702 66.289 70.024 65.11L68.2749 64.14ZM66.2461 66.1981C65.3924 66.7103 64.4333 66.9722 63.3439 66.9722V68.9722C64.773 68.9722 66.0917 68.6231 67.2751 67.913L66.2461 66.1981ZM63.3439 66.9722C62.1205 66.9722 61.0344 66.7576 60.0711 66.3447L59.2833 68.183C60.5238 68.7147 61.8821 68.9722 63.3439 68.9722V66.9722ZM60.0711 66.3447C59.1042 65.9303 58.4785 65.4095 58.103 64.8223L56.4181 65.8999C57.0611 66.9053 58.0466 67.653 59.2833 68.183L60.0711 66.3447ZM57.85 66.1689L58.3639 65.7939L57.185 64.1783L56.6711 64.5533L57.85 66.1689ZM56.916 65.499C57.4827 66.4476 58.4039 67.1355 59.5553 67.617L60.3269 65.7719C59.4412 65.4015 58.918 64.9505 58.6329 64.4733L56.916 65.499ZM59.5482 67.614C60.7059 68.1087 61.9762 68.3472 63.3439 68.3472V66.3472C62.2116 66.3472 61.2133 66.1506 60.334 65.7749L59.5482 67.614ZM63.3439 68.3472C64.6384 68.3472 65.8376 68.0238 66.9177 67.3691L65.8811 65.6587C65.128 66.1151 64.2902 66.3472 63.3439 66.3472V68.3472ZM66.9139 67.3714C67.9856 66.7284 68.8293 65.8659 69.4264 64.7912L67.6781 63.8199C67.2566 64.5785 66.6651 65.1883 65.8849 65.6564L66.9139 67.3714ZM69.4264 64.7912C70.0202 63.7223 70.3161 62.5592 70.3161 61.3194H68.3161C68.3161 62.2279 68.1027 63.0555 67.6781 63.8199L69.4264 64.7912ZM70.3161 61.3194V57.6806H68.3161V61.3194H70.3161ZM68.3597 57.3887C67.9855 58.6147 67.3156 59.5514 66.3472 60.2409L67.5072 61.8702C68.8536 60.9115 69.7764 59.5982 70.2726 57.9725L68.3597 57.3887ZM66.3485 60.24C65.3902 60.9201 64.2329 61.2778 62.83 61.2778V63.2778C64.5938 63.2778 66.168 62.8206 67.506 61.8711L66.3485 60.24ZM62.83 61.2778C61.9779 61.2778 61.1797 61.1178 60.4264 60.8006L59.6503 62.6439C60.6563 63.0674 61.7191 63.2778 62.83 63.2778V61.2778ZM60.4346 60.8041C59.6621 60.4707 59.0152 60.0349 58.4816 59.5012L57.0673 60.9154C57.7929 61.641 58.6553 62.2145 59.6421 62.6404L60.4346 60.8041ZM58.4867 59.5064C57.9517 58.9636 57.5204 58.3127 57.1961 57.5425L55.3528 58.3186C55.7692 59.3076 56.3379 60.1753 57.0622 60.9103L58.4867 59.5064ZM57.1975 57.5459C56.8794 56.7825 56.7189 55.9737 56.7189 55.1111H54.7189C54.7189 56.23 54.9287 57.3009 55.3514 58.3152L57.1975 57.5459ZM56.7189 55.1111C56.7189 54.2485 56.8794 53.4457 57.1961 52.6936L55.3528 51.9175C54.9287 52.9246 54.7189 53.9923 54.7189 55.1111H56.7189ZM57.1961 52.6936C57.5199 51.9246 57.9498 51.2805 58.4816 50.7488L57.0673 49.3346C56.3398 50.0621 55.7697 50.9273 55.3528 51.9175L57.1961 52.6936ZM58.4867 50.7436C59.018 50.2045 59.6604 49.7719 60.4264 49.4494L59.6503 47.6061C58.657 48.0243 57.7902 48.6011 57.0622 49.3397L58.4867 50.7436ZM60.4264 49.4494C61.1797 49.1322 61.9779 48.9722 62.83 48.9722V46.9722C61.7191 46.9722 60.6563 47.1826 59.6503 47.6061L60.4264 49.4494ZM62.83 48.9722C64.2304 48.9722 65.3861 49.3331 66.3441 50.0207L67.5103 48.3959C66.172 47.4354 64.5962 46.9722 62.83 46.9722V48.9722ZM66.3472 50.0229C67.3156 50.7125 67.9855 51.6491 68.3597 52.8752L70.2726 52.2914C69.7764 50.6657 68.8536 49.3523 67.5072 48.3937L66.3472 50.0229ZM70.3161 52.5833V48.2639H68.3161V52.5833H70.3161ZM62.83 62.6528C64.957 62.6528 66.7727 61.9545 68.1926 60.5239L66.773 59.115C65.7669 60.1288 64.4808 60.6528 62.83 60.6528V62.6528ZM68.1926 60.5239C69.62 59.0856 70.3161 57.2537 70.3161 55.1111H68.3161C68.3161 56.7834 67.79 58.0903 66.773 59.115L68.1926 60.5239ZM70.3161 55.1111C70.3161 52.9841 69.618 51.1654 68.1899 49.7373L66.7757 51.1516C67.792 52.1679 68.3161 53.4603 68.3161 55.1111H70.3161ZM68.1952 49.7427C66.7759 48.3017 64.9593 47.5972 62.83 47.5972V49.5972C64.4785 49.5972 65.7637 50.1242 66.7703 51.1462L68.1952 49.7427ZM62.83 47.5972C60.7556 47.5972 58.9626 48.3282 57.5118 49.779L58.926 51.1932C59.9937 50.1255 61.2747 49.5972 62.83 49.5972V47.5972ZM57.5092 49.7816C56.0675 51.234 55.3439 53.0314 55.3439 55.1111H57.3439C57.3439 53.5427 57.8703 52.2568 58.9286 51.1906L57.5092 49.7816ZM55.3439 55.1111C55.3439 57.1985 56.0663 59.0041 57.5066 60.4658L58.9312 59.062C57.8715 57.9866 57.3439 56.6904 57.3439 55.1111H55.3439ZM57.5118 60.471C58.9626 61.9218 60.7556 62.6528 62.83 62.6528V60.6528C61.2747 60.6528 59.9937 60.1245 58.926 59.0568L57.5118 60.471ZM76.8839 42.0833V41.0833H75.8839V42.0833H76.8839ZM87.2589 42.0833H88.2589V41.0833H87.2589V42.0833ZM87.2589 42.7083V43.7083H88.2589V42.7083H87.2589ZM77.5644 42.7083V41.7083H76.5644V42.7083H77.5644ZM77.5644 50.7639H76.5644V51.7639H77.5644V50.7639ZM86.2033 50.7639H87.2033V49.7639H86.2033V50.7639ZM86.2033 51.3889V52.3889H87.2033V51.3889H86.2033ZM77.5644 51.3889V50.3889H76.5644V51.3889H77.5644ZM77.5644 61.375H76.5644V62.375H77.5644V61.375ZM87.2589 61.375H88.2589V60.375H87.2589V61.375ZM87.2589 62V63H88.2589V62H87.2589ZM76.8839 62H75.8839V63H76.8839V62ZM76.8839 43.0833H87.2589V41.0833H76.8839V43.0833ZM86.2589 42.0833V42.7083H88.2589V42.0833H86.2589ZM87.2589 41.7083H77.5644V43.7083H87.2589V41.7083ZM76.5644 42.7083V50.7639H78.5644V42.7083H76.5644ZM77.5644 51.7639H86.2033V49.7639H77.5644V51.7639ZM85.2033 50.7639V51.3889H87.2033V50.7639H85.2033ZM86.2033 50.3889H77.5644V52.3889H86.2033V50.3889ZM76.5644 51.3889V61.375H78.5644V51.3889H76.5644ZM77.5644 62.375H87.2589V60.375H77.5644V62.375ZM86.2589 61.375V62H88.2589V61.375H86.2589ZM87.2589 61H76.8839V63H87.2589V61ZM77.8839 62V42.0833H75.8839V62H77.8839ZM103.091 62V63H105.08L103.893 61.4035L103.091 62ZM102.313 62L101.511 62.597L101.81 63H102.313V62ZM97.4239 55.4306L98.2261 54.8335L97.4239 53.7555L96.6217 54.8335L97.4239 55.4306ZM92.535 62V63H93.0373L93.3372 62.597L92.535 62ZM91.7572 62L90.9561 61.4015L89.7619 63H91.7572V62ZM97.0489 54.9167L97.85 55.5152L98.2972 54.9165L97.8499 54.318L97.0489 54.9167ZM92.0767 48.2639V47.2639H90.0808L91.2757 48.8625L92.0767 48.2639ZM92.8406 48.2639L93.6419 47.6656L93.3419 47.2639H92.8406V48.2639ZM97.4239 54.4028L96.6226 55.001L97.4239 56.0743L98.2252 55.001L97.4239 54.4028ZM102.007 48.2639V47.2639H101.506L101.206 47.6656L102.007 48.2639ZM102.771 48.2639L103.574 48.8604L104.76 47.2639H102.771V48.2639ZM97.8267 54.9167L97.0241 54.3202L96.5807 54.9166L97.024 55.5131L97.8267 54.9167ZM103.091 61H102.313V63H103.091V61ZM103.115 61.403L98.2261 54.8335L96.6217 56.0276L101.511 62.597L103.115 61.403ZM96.6217 54.8335L91.7328 61.403L93.3372 62.597L98.2261 56.0276L96.6217 54.8335ZM92.535 61H91.7572V63H92.535V61ZM92.5583 62.5985L97.85 55.5152L96.2478 54.3182L90.9561 61.4015L92.5583 62.5985ZM97.8499 54.318L92.8777 47.6652L91.2757 48.8625L96.2479 55.5153L97.8499 54.318ZM92.0767 49.2639H92.8406V47.2639H92.0767V49.2639ZM92.0393 48.8621L96.6226 55.001L98.2252 53.8045L93.6419 47.6656L92.0393 48.8621ZM98.2252 55.001L102.809 48.8621L101.206 47.6656L96.6226 53.8045L98.2252 55.001ZM102.007 49.2639H102.771V47.2639H102.007V49.2639ZM101.969 47.6674L97.0241 54.3202L98.6293 55.5132L103.574 48.8604L101.969 47.6674ZM97.024 55.5131L102.288 62.5965L103.893 61.4035L98.6293 54.3202L97.024 55.5131ZM118.019 48.5417L117.623 49.4598L117.631 49.4633L118.019 48.5417ZM120.283 50.0556L119.571 50.7575L119.576 50.7627L120.283 50.0556ZM121.783 52.3333L120.86 52.718L120.862 52.7214L121.783 52.3333ZM121.783 57.9444L122.705 58.3325L121.783 57.9444ZM120.283 60.2222L120.99 60.9293L120.996 60.9241L120.283 60.2222ZM111.117 61.0556L110.534 61.868L110.541 61.8732L111.117 61.0556ZM108.742 57.6806L109.698 57.3887L107.742 57.6806H108.742ZM108.742 67.6389V68.6389H109.742V67.6389H108.742ZM108.061 67.6389H107.061V68.6389H108.061V67.6389ZM108.061 48.2639V47.2639H107.061V48.2639H108.061ZM108.742 48.2639H109.742V47.2639H108.742V48.2639ZM108.742 52.5833H107.742L109.698 52.8752L108.742 52.5833ZM111.117 49.2083L110.537 48.3937L110.534 48.3959L111.117 49.2083ZM119.825 59.7639L119.118 59.0568L119.115 59.0594L119.825 59.7639ZM119.825 50.5L119.113 51.2019L119.118 51.2071L119.825 50.5ZM110.561 50.4444L109.851 49.74L109.851 49.74L110.561 50.4444ZM110.561 59.8194L109.849 60.5212L109.854 60.5266L110.561 59.8194ZM115.228 48.9722C116.076 48.9722 116.872 49.1355 117.623 49.4598L118.416 47.6235C117.408 47.1886 116.342 46.9722 115.228 46.9722V48.9722ZM117.631 49.4633C118.397 49.7858 119.04 50.2184 119.571 50.7575L120.996 49.3536C120.268 48.6149 119.401 48.0382 118.408 47.62L117.631 49.4633ZM119.576 50.7627C120.106 51.2926 120.536 51.9397 120.86 52.7179L122.706 51.9487C122.29 50.9492 121.72 50.0777 120.99 49.3484L119.576 50.7627ZM120.862 52.7214C121.178 53.4735 121.339 54.2763 121.339 55.1389H123.339C123.339 54.02 123.129 52.9524 122.705 51.9453L120.862 52.7214ZM121.339 55.1389C121.339 56.0015 121.178 56.8043 120.862 57.5564L122.705 58.3325C123.129 57.3254 123.339 56.2577 123.339 55.1389H121.339ZM120.862 57.5564C120.537 58.3266 120.106 58.9775 119.571 59.5203L120.996 60.9241C121.72 60.1892 122.289 59.3215 122.705 58.3325L120.862 57.5564ZM119.576 59.5151C119.044 60.0469 118.4 60.4768 117.631 60.8006L118.408 62.6439C119.398 62.2269 120.263 61.6568 120.99 60.9293L119.576 59.5151ZM117.631 60.8006C116.878 61.1178 116.08 61.2778 115.228 61.2778V63.2778C116.339 63.2778 117.402 63.0674 118.408 62.6439L117.631 60.8006ZM115.228 61.2778C113.825 61.2778 112.662 60.9202 111.692 60.2379L110.541 61.8732C111.887 62.8206 113.464 63.2778 115.228 63.2778V61.2778ZM111.7 60.2432C110.74 59.5543 110.073 58.6172 109.698 57.3887L107.785 57.9725C108.281 59.5958 109.197 60.9087 110.534 61.868L111.7 60.2432ZM107.742 57.6806V67.6389H109.742V57.6806H107.742ZM108.742 66.6389H108.061V68.6389H108.742V66.6389ZM109.061 67.6389V48.2639H107.061V67.6389H109.061ZM108.061 49.2639H108.742V47.2639H108.061V49.2639ZM107.742 48.2639V52.5833H109.742V48.2639H107.742ZM109.698 52.8752C110.073 51.6467 110.74 50.7096 111.7 50.0207L110.534 48.3959C109.197 49.3552 108.281 50.6681 107.785 52.2914L109.698 52.8752ZM111.697 50.0229C112.666 49.3331 113.827 48.9722 115.228 48.9722V46.9722C113.461 46.9722 111.883 47.4354 110.537 48.3937L111.697 50.0229ZM115.228 62.6528C117.302 62.6528 119.092 61.9216 120.535 60.4684L119.115 59.0594C118.058 60.1247 116.783 60.6528 115.228 60.6528V62.6528ZM120.532 60.471C121.984 59.0192 122.714 57.221 122.714 55.1389H120.714C120.714 56.705 120.185 57.9901 119.118 59.0568L120.532 60.471ZM122.714 55.1389C122.714 53.0491 121.985 51.2458 120.532 49.7929L119.118 51.2071C120.184 52.2727 120.714 53.562 120.714 55.1389H122.714ZM120.537 49.7981C119.095 48.3348 117.305 47.5972 115.228 47.5972V49.5972C116.781 49.5972 118.055 50.1281 119.113 51.2019L120.537 49.7981ZM115.228 47.5972C113.098 47.5972 111.279 48.3016 109.851 49.74L111.271 51.1489C112.288 50.1243 113.579 49.5972 115.228 49.5972V47.5972ZM109.851 49.74C108.432 51.1706 107.742 52.9987 107.742 55.1389H109.742C109.742 53.4643 110.265 52.1628 111.271 51.1489L109.851 49.74ZM107.742 55.1389C107.742 57.2636 108.433 59.0844 109.849 60.5212L111.274 59.1177C110.263 58.0915 109.742 56.7919 109.742 55.1389H107.742ZM109.854 60.5266C111.282 61.9546 113.101 62.6528 115.228 62.6528V60.6528C113.577 60.6528 112.285 60.1287 111.268 59.1123L109.854 60.5266ZM128.559 42.0833H129.559V41.0833H128.559V42.0833ZM128.559 62V63H129.559V62H128.559ZM127.879 62H126.879V63H127.879V62ZM127.879 42.0833V41.0833H126.879V42.0833H127.879ZM127.559 42.0833V62H129.559V42.0833H127.559ZM128.559 61H127.879V63H128.559V61ZM128.879 62V42.0833H126.879V62H128.879ZM127.879 43.0833H128.559V41.0833H127.879V43.0833ZM144.141 48.9167L143.639 49.7813L143.642 49.7831L144.141 48.9167ZM146.724 51.5139L147.593 51.0177L146.724 51.5139ZM147.113 57.9444L148.035 58.3325L148.036 58.3291L147.113 57.9444ZM143.336 61.7222L142.947 60.8006L142.944 60.8021L143.336 61.7222ZM137.03 61.3472L136.527 62.2118L136.533 62.215L137.03 61.3472ZM134.461 58.7639L133.589 59.2545L133.594 59.2632L134.461 58.7639ZM134.461 51.5139L133.592 51.0177L133.589 51.0233L134.461 51.5139ZM136.058 50.5L135.34 49.8034L135.34 49.8035L136.058 50.5ZM136.058 59.7639L135.34 60.4604L135.343 60.4631L136.058 59.7639ZM145.113 59.7639L144.401 59.062L144.401 59.062L145.113 59.7639ZM145.113 50.5L144.398 51.1993L144.404 51.2045L145.113 50.5ZM137.532 49.7812C138.459 49.2428 139.47 48.9722 140.586 48.9722V46.9722C139.127 46.9722 137.768 47.3313 136.528 48.0521L137.532 49.7812ZM140.586 48.9722C141.701 48.9722 142.712 49.2428 143.639 49.7812L144.644 48.0521C143.403 47.3313 142.044 46.9722 140.586 46.9722V48.9722ZM143.642 49.7831C144.58 50.3236 145.314 51.0611 145.856 52.01L147.593 51.0177C146.876 49.763 145.888 48.769 144.64 48.0502L143.642 49.7831ZM145.856 52.01C146.396 52.9552 146.669 53.9916 146.669 55.1389H148.669C148.669 53.6566 148.312 52.2763 147.593 51.0177L145.856 52.01ZM146.669 55.1389C146.669 55.9909 146.509 56.7952 146.19 57.5598L148.036 58.3291C148.459 57.3159 148.669 56.2498 148.669 55.1389H146.669ZM146.192 57.5564C145.869 58.3236 145.435 58.9728 144.892 59.5151L146.307 60.9293C147.042 60.1939 147.617 59.3245 148.035 58.3325L146.192 57.5564ZM144.892 59.5151C144.361 60.0469 143.717 60.4768 142.948 60.8006L143.724 62.6439C144.714 62.2269 145.579 61.6568 146.307 60.9293L144.892 59.5151ZM142.944 60.8021C142.2 61.1188 141.416 61.2778 140.586 61.2778V63.2778C141.681 63.2778 142.731 63.0664 143.727 62.6424L142.944 60.8021ZM140.586 61.2778C139.467 61.2778 138.454 61.0104 137.527 60.4794L136.533 62.215C137.773 62.9248 139.13 63.2778 140.586 63.2778V61.2778ZM137.532 60.4826C136.601 59.9415 135.87 59.2067 135.327 58.2646L133.594 59.2632C134.31 60.5062 135.292 61.4937 136.528 62.2118L137.532 60.4826ZM135.332 58.2733C134.799 57.3273 134.53 56.2889 134.53 55.1389H132.53C132.53 56.6185 132.881 57.9968 133.589 59.2545L135.332 58.2733ZM134.53 55.1389C134.53 53.9888 134.799 52.9505 135.332 52.0045L133.589 51.0233C132.881 52.281 132.53 53.6593 132.53 55.1389H134.53ZM135.329 52.01C135.872 51.059 136.603 50.3212 137.532 49.7812L136.528 48.0521C135.29 48.7714 134.308 49.7651 133.592 51.0177L135.329 52.01ZM140.586 47.5972C138.531 47.5972 136.762 48.3386 135.34 49.8034L136.775 51.1966C137.816 50.1244 139.066 49.5972 140.586 49.5972V47.5972ZM135.34 49.8035C133.928 51.2584 133.224 53.0584 133.224 55.1389H135.224C135.224 53.5527 135.743 52.2601 136.775 51.1965L135.34 49.8035ZM133.224 55.1389C133.224 57.2116 133.929 59.0065 135.34 60.4604L136.775 59.0674C135.742 58.0028 135.224 56.7143 135.224 55.1389H133.224ZM135.343 60.4631C136.766 61.9178 138.534 62.6528 140.586 62.6528V60.6528C139.063 60.6528 137.813 60.1284 136.773 59.0647L135.343 60.4631ZM140.586 62.6528C142.629 62.6528 144.396 61.917 145.826 60.4657L144.401 59.062C143.349 60.1293 142.097 60.6528 140.586 60.6528V62.6528ZM145.826 60.4658C147.264 59.0062 147.988 57.2108 147.988 55.1389H145.988C145.988 56.6966 145.463 57.9845 144.401 59.062L145.826 60.4658ZM147.988 55.1389C147.988 53.0514 147.266 51.2489 145.823 49.7955L144.404 51.2045C145.461 52.2696 145.988 53.5597 145.988 55.1389H147.988ZM145.828 49.8008C144.399 48.3395 142.632 47.5972 140.586 47.5972V49.5972C142.095 49.5972 143.346 50.1235 144.398 51.1992L145.828 49.8008ZM159.473 48.2639L160.462 48.4112L160.574 47.6605L159.881 47.3509L159.473 48.2639ZM159.376 48.9167L158.912 49.8029L160.158 50.4539L160.365 49.064L159.376 48.9167ZM155.098 49.875L154.375 49.1838L154.375 49.184L155.098 49.875ZM153.889 62V63H154.889V62H153.889ZM153.209 62H152.209V63H153.209V62ZM153.209 48.2639V47.2639H152.209V48.2639H153.209ZM153.889 48.2639H154.889V47.2639H153.889V48.2639ZM153.889 50.9861H152.889L154.823 51.3457L153.889 50.9861ZM155.528 48.8194L156.124 49.623L156.125 49.6218L155.528 48.8194ZM157.959 48.9722C158.421 48.9722 158.781 49.0503 159.065 49.1769L159.881 47.3509C159.294 47.0886 158.645 46.9722 157.959 46.9722V48.9722ZM158.484 48.1166L158.386 48.7694L160.365 49.064L160.462 48.4112L158.484 48.1166ZM159.839 48.0304C159.266 47.7311 158.63 47.5972 157.959 47.5972V49.5972C158.362 49.5972 158.67 49.6763 158.912 49.8029L159.839 48.0304ZM157.959 47.5972C156.57 47.5972 155.362 48.152 154.375 49.1838L155.82 50.5662C156.463 49.8943 157.162 49.5972 157.959 49.5972V47.5972ZM154.375 49.184C153.393 50.2111 152.889 51.4581 152.889 52.875H154.889C154.889 51.9771 155.192 51.224 155.821 50.566L154.375 49.184ZM152.889 52.875V62H154.889V52.875H152.889ZM153.889 61H153.209V63H153.889V61ZM154.209 62V48.2639H152.209V62H154.209ZM153.209 49.2639H153.889V47.2639H153.209V49.2639ZM152.889 48.2639V50.9861H154.889V48.2639H152.889ZM154.823 51.3457C155.098 50.63 155.529 50.0632 156.124 49.623L154.933 48.0159C154.027 48.6868 153.366 49.5644 152.956 50.6265L154.823 51.3457ZM156.125 49.6218C156.73 49.1719 157.334 48.9722 157.959 48.9722V46.9722C156.861 46.9722 155.845 47.3373 154.931 48.0171L156.125 49.6218ZM175.652 54.6944V55.6944H176.652V54.6944H175.652ZM162.999 54.6944V53.6944H161.999V54.6944H162.999ZM164.777 59.7778L164.051 60.4658L164.054 60.4686L164.777 59.7778ZM172.541 60.8889L173.001 61.7765L173.008 61.7731L172.541 60.8889ZM174.763 58.7222L175.271 57.8609L174.376 57.3333L173.883 58.2471L174.763 58.7222ZM175.304 59.0417L176.182 59.5211L176.646 58.6719L175.812 58.1803L175.304 59.0417ZM172.846 61.4167L173.314 62.3003L173.317 62.2988L172.846 61.4167ZM164.291 60.2222L163.571 60.9171L163.574 60.9196L164.291 60.2222ZM163.221 51.4861L164.092 51.9774L164.094 51.9743L163.221 51.4861ZM165.707 48.9167L166.217 49.7768L166.219 49.7755L165.707 48.9167ZM173.777 49.8611L173.064 50.563L173.07 50.5682L173.777 49.8611ZM163.054 54.0694L162.065 53.924L161.897 55.0694H163.054V54.0694ZM174.971 54.0694V55.0694H176.02L175.97 54.0216L174.971 54.0694ZM173.193 50.1806L172.505 50.9056L172.508 50.9086L173.193 50.1806ZM175.652 53.6944H162.999V55.6944H175.652V53.6944ZM161.999 54.6944V55.0556H163.999V54.6944H161.999ZM161.999 55.0556C161.999 57.1813 162.671 59.0104 164.051 60.4658L165.502 59.0897C164.512 58.0452 163.999 56.7261 163.999 55.0556H161.999ZM164.054 60.4686C165.437 61.9164 167.161 62.6528 169.166 62.6528V60.6528C167.707 60.6528 166.505 60.1391 165.5 59.0869L164.054 60.4686ZM169.166 62.6528C170.571 62.6528 171.858 62.3698 173.001 61.7765L172.08 60.0013C171.26 60.4265 170.298 60.6528 169.166 60.6528V62.6528ZM173.008 61.7731C174.154 61.1674 175.043 60.3073 175.643 59.1974L173.883 58.2471C173.482 58.989 172.89 59.5733 172.073 60.0047L173.008 61.7731ZM174.255 59.5836L174.796 59.903L175.812 58.1803L175.271 57.8609L174.255 59.5836ZM174.427 58.5622C173.982 59.3764 173.311 60.0346 172.375 60.5345L173.317 62.2988C174.566 61.632 175.534 60.7069 176.182 59.5211L174.427 58.5622ZM172.378 60.5331C171.455 61.0221 170.392 61.2778 169.166 61.2778V63.2778C170.68 63.2778 172.07 62.9594 173.314 62.3003L172.378 60.5331ZM169.166 61.2778C167.518 61.2778 166.152 60.7012 165.007 59.5249L163.574 60.9196C165.096 62.484 166.98 63.2778 169.166 63.2778V61.2778ZM165.01 59.5274C163.883 58.3608 163.304 56.8955 163.304 55.0556H161.304C161.304 57.3638 162.05 59.3429 163.571 60.9171L165.01 59.5274ZM163.304 55.0556C163.304 53.9239 163.569 52.9044 164.092 51.9774L162.35 50.9948C161.651 52.2345 161.304 53.5947 161.304 55.0556H163.304ZM164.094 51.9743C164.622 51.0308 165.327 50.3046 166.217 49.7768L165.197 48.0565C163.995 48.7695 163.043 49.7563 162.348 50.998L164.094 51.9743ZM166.219 49.7755C167.117 49.2399 168.093 48.9722 169.166 48.9722V46.9722C167.738 46.9722 166.408 47.3342 165.195 48.0578L166.219 49.7755ZM169.166 48.9722C170.742 48.9722 172.019 49.5022 173.064 50.563L174.489 49.1593C173.053 47.7015 171.256 46.9722 169.166 46.9722V48.9722ZM173.07 50.5682C174.122 51.621 174.652 52.9132 174.652 54.5139H176.652C176.652 52.4109 175.931 50.6012 174.484 49.154L173.07 50.5682ZM174.652 54.5139V54.6944H176.652V54.5139H174.652ZM169.166 47.5972C167.356 47.5972 165.763 48.2057 164.437 49.4134L165.783 50.8922C166.735 50.0257 167.845 49.5972 169.166 49.5972V47.5972ZM164.437 49.4134C163.121 50.6114 162.329 52.1295 162.065 53.924L164.044 54.2149C164.243 52.8612 164.821 51.7682 165.783 50.8922L164.437 49.4134ZM163.054 55.0694H174.971V53.0694H163.054V55.0694ZM175.97 54.0216C175.884 52.2207 175.182 50.6792 173.879 49.4525L172.508 50.9086C173.427 51.7745 173.91 52.8256 173.972 54.1173L175.97 54.0216ZM173.882 49.4556C172.58 48.2182 170.988 47.5972 169.166 47.5972V49.5972C170.491 49.5972 171.585 50.0318 172.505 50.9056L173.882 49.4556ZM187.469 48.2639L188.459 48.4112L188.57 47.6605L187.877 47.3509L187.469 48.2639ZM187.372 48.9167L186.909 49.8029L188.154 50.4539L188.361 49.064L187.372 48.9167ZM183.094 49.875L182.372 49.1838L182.372 49.184L183.094 49.875ZM181.886 62V63H182.886V62H181.886ZM181.206 62H180.206V63H181.206V62ZM181.206 48.2639V47.2639H180.206V48.2639H181.206ZM181.886 48.2639H182.886V47.2639H181.886V48.2639ZM181.886 50.9861H180.886L182.819 51.3457L181.886 50.9861ZM183.525 48.8194L184.12 49.623L184.122 49.6218L183.525 48.8194ZM185.956 48.9722C186.417 48.9722 186.778 49.0503 187.062 49.1769L187.877 47.3509C187.29 47.0886 186.642 46.9722 185.956 46.9722V48.9722ZM186.48 48.1166L186.383 48.7694L188.361 49.064L188.459 48.4112L186.48 48.1166ZM187.835 48.0304C187.263 47.7311 186.627 47.5972 185.956 47.5972V49.5972C186.358 49.5972 186.667 49.6763 186.909 49.8029L187.835 48.0304ZM185.956 47.5972C184.567 47.5972 183.359 48.152 182.372 49.1838L183.817 50.5662C184.46 49.8943 185.159 49.5972 185.956 49.5972V47.5972ZM182.372 49.184C181.39 50.2111 180.886 51.4581 180.886 52.875H182.886C182.886 51.9771 183.188 51.224 183.817 50.566L182.372 49.184ZM180.886 52.875V62H182.886V52.875H180.886ZM181.886 61H181.206V63H181.886V61ZM182.206 62V48.2639H180.206V62H182.206ZM181.206 49.2639H181.886V47.2639H181.206V49.2639ZM180.886 48.2639V50.9861H182.886V48.2639H180.886ZM182.819 51.3457C183.095 50.63 183.526 50.0632 184.12 49.623L182.93 48.0159C182.024 48.6868 181.362 49.5644 180.953 50.6265L182.819 51.3457ZM184.122 49.6218C184.727 49.1719 185.331 48.9722 185.956 48.9722V46.9722C184.858 46.9722 183.842 47.3373 182.928 48.0171L184.122 49.6218Z" fill="url(#paint1_linear_65_4)" mask="url(#path-1-outside-1_65_4)"/>
</g>
<defs>
<filter id="filter0_d_65_4" x="-13.6861" y="0.883312" width="243.356" height="110.289" filterUnits="userSpaceOnUse" color-interpolation-filters="sRGB">
<feFlood flood-opacity="0" result="BackgroundImageFix"/>
<feColorMatrix in="SourceAlpha" type="matrix" values="0 0 0 0 0 0 0 0 0 0 0 0 0 0 0 0 0 0 127 0" result="hardAlpha"/>
<feOffset dy="1"/>
<feGaussianBlur stdDeviation="21.1"/>
<feComposite in2="hardAlpha" operator="out"/>
<feColorMatrix type="matrix" values="0 0 0 0 1 0 0 0 0 1 0 0 0 0 1 0 0 0 0.4 0"/>
<feBlend mode="normal" in2="BackgroundImageFix" result="effect1_dropShadow_65_4"/>
<feBlend mode="normal" in="SourceGraphic" in2="effect1_dropShadow_65_4" result="shape"/>
</filter>
<linearGradient id="paint0_linear_65_4" x1="15.7464" y1="64.4254" x2="136.833" y2="151.978" gradientUnits="userSpaceOnUse">
<stop offset="0.035" stop-color="#9E41BF"/>
<stop offset="0.305" stop-color="white"/>
<stop offset="0.595" stop-color="#803F25"/>
<stop offset="0.881237" stop-color="#04B335"/>
</linearGradient>
<linearGradient id="paint1_linear_65_4" x1="28" y1="53" x2="199" y2="53" gradientUnits="userSpaceOnUse">
<stop stop-color="#BA4A4A"/>
<stop offset="0.502485" stop-color="#1D8CCB"/>
<stop offset="1" stop-color="#04B335"/>
</linearGradient>
</defs>
</svg>
