<svg width="1440" height="1024" viewBox="0 0 1440 1024" fill="none" xmlns="http://www.w3.org/2000/svg">
<g filter="url(#filter0_d_96_26)">
<path d="M0 -4H1440V1024H0V-4Z" fill="url(#paint0_radial_96_26)"/>
</g>
<path d="M295.732 -48.5983C301.243 224.219 -53 396.978 -53 396.978C357.987 624.271 533.98 805.966 650.529 1167.2M690.377 1306C677.752 1256.87 664.572 1210.73 650.529 1167.2M650.529 1167.2C1412.52 674.7 1458 -76 1458 -76" stroke="url(#paint1_linear_96_26)" stroke-width="1.25"/>
<path d="M1482 413C1374.03 8.75629 1177.67 -71.3548 646 -18.484" stroke="url(#paint2_linear_96_26)" stroke-width="1.25"/>
<defs>
<filter id="filter0_d_96_26" x="-4" y="-4" width="1448" height="1036" filterUnits="userSpaceOnUse" color-interpolation-filters="sRGB">
<feFlood flood-opacity="0" result="BackgroundImageFix"/>
<feColorMatrix in="SourceAlpha" type="matrix" values="0 0 0 0 0 0 0 0 0 0 0 0 0 0 0 0 0 0 127 0" result="hardAlpha"/>
<feOffset dy="4"/>
<feGaussianBlur stdDeviation="2"/>
<feComposite in2="hardAlpha" operator="out"/>
<feColorMatrix type="matrix" values="0 0 0 0 0 0 0 0 0 0 0 0 0 0 0 0 0 0 0.25 0"/>
<feBlend mode="normal" in2="BackgroundImageFix" result="effect1_dropShadow_96_26"/>
<feBlend mode="normal" in="SourceGraphic" in2="effect1_dropShadow_96_26" result="shape"/>
</filter>
<radialGradient id="paint0_radial_96_26" cx="0" cy="0" r="1" gradientUnits="userSpaceOnUse" gradientTransform="translate(201.5 548) rotate(60.213) scale(759.899 1064.45)">
<stop stop-color="#535353"/>
<stop offset="0.0001" stop-color="#222222"/>
<stop offset="0.326453" stop-color="#1B1B1B"/>
<stop offset="0.463173" stop-color="#131313"/>
<stop offset="0.587776" stop-color="#0C0C0C"/>
<stop offset="0.68681" stop-color="#0C0C0C"/>
<stop offset="0.852285" stop-color="#0C0C0C"/>
<stop offset="1" stop-color="#0C0C0C"/>
</radialGradient>
<linearGradient id="paint1_linear_96_26" x1="-161.276" y1="1079.41" x2="1393.04" y2="1333.69" gradientUnits="userSpaceOnUse">
<stop offset="0.201328" stop-color="#9E41BF"/>
<stop offset="0.623502" stop-color="#0012B2"/>
<stop offset="0.881237" stop-color="#04B335"/>
</linearGradient>
<linearGradient id="paint2_linear_96_26" x1="586.094" y1="339.875" x2="1404.68" y2="569.467" gradientUnits="userSpaceOnUse">
<stop offset="0.201328" stop-color="#9E41BF"/>
<stop offset="0.623502" stop-color="#0012B2"/>
<stop offset="0.881237" stop-color="#04B335"/>
</linearGradient>
</defs>
</svg>
