<svg width="1440" height="1024" viewBox="0 0 1440 1024" fill="none" xmlns="http://www.w3.org/2000/svg">
<path fill-rule="evenodd" clip-rule="evenodd" d="M1340.59 361.159C1233.97 610.401 1032.13 921.178 651.271 1167.47C665.263 1210.88 678.399 1256.87 690.982 1305.84L689.771 1306.16C677.15 1257.03 663.973 1210.91 649.934 1167.4C591.68 986.842 518.584 851.194 408.72 732.286C298.846 613.367 152.168 511.158 -53.3026 397.524L-54.3545 396.943L-53.274 396.416L-53.0001 396.978C-53.274 396.416 -53.2729 396.415 -53.2703 396.414L-53.2586 396.408L-53.2109 396.385C-53.1685 396.364 -53.1047 396.333 -53.0201 396.291C-52.8508 396.207 -52.5977 396.082 -52.2637 395.915C-51.5955 395.58 -50.6032 395.08 -49.3087 394.415C-46.7195 393.085 -42.9211 391.098 -38.0878 388.472C-28.4212 383.22 -14.6152 375.412 1.93583 365.189C35.0393 344.743 79.1171 314.643 123.02 276.027C210.848 198.773 297.857 87.5418 295.107 -48.5857L296.357 -48.611C299.118 88.0785 211.761 199.635 123.845 276.965C79.8761 315.64 35.7376 345.781 2.5927 366.253C-13.9804 376.489 -27.8066 384.309 -37.4911 389.571C-42.3334 392.201 -46.1403 394.193 -48.7376 395.527C-50.0044 396.177 -50.9835 396.672 -51.6546 397.008C153.316 510.436 299.818 612.577 409.638 731.437C519.496 850.339 592.619 985.94 650.873 1166.24C1031.31 920.135 1232.92 609.664 1339.44 360.667C1364.09 303.035 1383.65 248.697 1399.15 199.212C1354.01 119.386 1297.15 63.3405 1222.61 26.4C1093.74 -37.4624 911.899 -44.2975 646.062 -17.8621L645.938 -19.106C911.775 -45.5414 1093.95 -38.7564 1223.17 25.28C1297.66 62.1985 1354.52 118.122 1399.66 197.579C1417.4 140.768 1429.77 90.4041 1438.38 48.8655C1446.46 9.84587 1451.21 -21.3861 1453.94 -42.8603C1455.3 -53.5974 1456.16 -61.8949 1456.68 -67.5066C1456.94 -70.3125 1457.11 -72.4468 1457.22 -73.879C1457.28 -74.595 1457.32 -75.1356 1457.34 -75.4966C1457.35 -75.6772 1457.36 -75.8129 1457.37 -75.9033L1457.37 -76.0047L1457.38 -76.0299C1457.38 -76.0353 1457.38 -76.0378 1458 -76.0001C1458.62 -75.9623 1458.62 -75.9591 1458.62 -75.9531L1458.62 -75.9268L1458.61 -75.8229C1458.61 -75.731 1458.6 -75.5937 1458.59 -75.4115C1458.56 -75.0472 1458.52 -74.5034 1458.47 -73.7841C1458.36 -72.3454 1458.19 -70.2043 1457.93 -67.3916C1457.41 -61.7662 1456.54 -53.4545 1455.18 -42.7027C1452.44 -21.1991 1447.69 10.0651 1439.6 49.119C1430.93 90.966 1418.44 141.758 1400.51 199.069C1433.31 257.216 1459.91 327.887 1482.6 412.839L1481.4 413.161C1458.85 328.767 1432.47 258.535 1399.99 200.706C1384.54 249.927 1365.07 303.92 1340.59 361.159Z" fill="url(#paint0_linear_96_22)"/>
<defs>
<linearGradient id="paint0_linear_96_22" x1="-164.49" y1="1079.54" x2="1415.12" y2="1342.36" gradientUnits="userSpaceOnUse">
<stop offset="0.201328" stop-color="#9E41BF"/>
<stop offset="0.623502" stop-color="#0012B2"/>
<stop offset="0.881237" stop-color="#04B335"/>
</linearGradient>
</defs>
</svg>
