<svg width="949" height="977" viewBox="0 0 949 977" fill="none" xmlns="http://www.w3.org/2000/svg">
<g filter="url(#filter0_d_35_2)">
<path d="M246.5 393.965L316 351.465L336.5 427.465L265 469.465L246.5 393.965Z" fill="url(#paint0_linear_35_2)" fill-opacity="0.69" style="mix-blend-mode:screen"/>
<path d="M330 341.5L400 297.5L412.514 336.476L424 374.5L352 416.5L330 341.5Z" fill="url(#paint1_linear_35_2)" fill-opacity="0.69" style="mix-blend-mode:screen"/>
<path d="M417.5 289.476L490.5 244.5L503.514 284.5L516 320.5L441.5 365.476L417.5 289.476Z" fill="url(#paint2_linear_35_2)" fill-opacity="0.69" style="mix-blend-mode:screen"/>
<path d="M444 381.976L521.71 336.476L535.5 377.5L549.014 417.976L469.5 460.5L444 381.976Z" fill="url(#paint3_linear_35_2)" fill-opacity="0.69" style="mix-blend-mode:screen"/>
<path d="M357 434.476L428.5 392.976L441.5 432.476L454.113 469.465L379 512L357 434.476Z" fill="url(#paint4_linear_35_2)" fill-opacity="0.69" style="mix-blend-mode:screen"/>
<path d="M270.901 483.976L340.5 444L352 483.976L363.514 523.5L291.5 563L270.901 483.976Z" fill="url(#paint5_linear_35_2)" fill-opacity="0.69" style="mix-blend-mode:screen"/>
<path d="M295.5 580.476L366.5 542L376.5 578.976L389 622.5L316 661L295.5 580.476Z" fill="url(#paint6_linear_35_2)" fill-opacity="0.69" style="mix-blend-mode:screen"/>
<path d="M383.5 532.035L457.514 490.469L468.014 523.5L484.5 571.976L406 613L383.5 532.035Z" fill="url(#paint7_linear_35_2)" fill-opacity="0.69" style="mix-blend-mode:screen"/>
<path d="M475.5 478L554.514 434.476L564.014 464.5L581.014 517.476L502.514 561.476L475.5 478Z" fill="url(#paint8_linear_35_2)" fill-opacity="0.69" style="mix-blend-mode:screen"/>
<path d="M505.514 242.476L551.014 274.976L564.014 313.476L575.514 347.476L528.514 317.976L505.514 242.476Z" fill="url(#paint9_linear_35_2)" fill-opacity="0.69" style="mix-blend-mode:screen"/>
<path d="M562.014 279.476L606.014 311.476L620.514 351.976L629.514 381.976L588.014 355.476L562.014 279.476Z" fill="url(#paint10_linear_35_2)" fill-opacity="0.69" style="mix-blend-mode:screen"/>
<path d="M610.014 311.977L651.014 340.977L666.014 384.477L675.514 410.976L636.514 386.977L610.014 311.977Z" fill="url(#paint11_linear_35_2)" fill-opacity="0.69" style="mix-blend-mode:screen"/>
<path d="M535.5 335.892L585.5 368.392L598.5 407.392L608.5 440L562 415L535.5 335.892Z" fill="url(#paint12_linear_35_2)" fill-opacity="0.69" style="mix-blend-mode:screen"/>
<path d="M570.036 434.996L617.5 461.996L631 504.5L641.5 540L598.5 517.476L570.036 434.996Z" fill="url(#paint13_linear_35_2)" fill-opacity="0.69" style="mix-blend-mode:screen"/>
<path d="M626.014 466.469L668.014 490.469L685.22 540L694.514 565L653.514 543.995L626.014 466.469Z" fill="url(#paint14_linear_35_2)" fill-opacity="0.69" style="mix-blend-mode:screen"/>
<path d="M678.5 494.976L716.5 515.476L732.5 561.476L743 591.476L704 571.976L678.5 494.976Z" fill="url(#paint15_linear_35_2)" fill-opacity="0.69" style="mix-blend-mode:screen"/>
<path d="M645.22 404L685.22 429.5L698.72 469L710.22 502L670.22 478L645.22 404Z" fill="url(#paint16_linear_35_2)" fill-opacity="0.69" style="mix-blend-mode:screen"/>
<path d="M593.5 370L635.366 397.476L648.866 434.476L661.866 472.976L617.866 446.976L593.5 370Z" fill="url(#paint17_linear_35_2)" fill-opacity="0.69" style="mix-blend-mode:screen"/>
<path d="M592.514 530L639.5 553.5L592.514 578.976L559 596L509.014 575L592.514 530Z" fill="url(#paint18_linear_35_2)" fill-opacity="0.69"/>
<path d="M646.764 558.226L691 579.726L614.5 620.5L568.5 600L646.764 558.226Z" fill="url(#paint19_linear_35_2)" fill-opacity="0.69"/>
<path d="M697.014 582.976L738.014 602.976L661.866 642L622 624L697.014 582.976Z" fill="url(#paint20_linear_35_2)" fill-opacity="0.69"/>
<path d="M518.5 676.5L562.5 691.476L495 726.5L448.5 712L518.5 676.5Z" fill="url(#paint21_linear_35_2)" fill-opacity="0.69"/>
<path d="M461 656.5L507 672.5L437.5 710L389 695L461 656.5Z" fill="url(#paint22_linear_35_2)" fill-opacity="0.69"/>
<path d="M396 635L448.5 653L378.5 690L325 674.5L396 635Z" fill="url(#paint23_linear_35_2)" fill-opacity="0.69"/>
<path d="M492.5 582.5L543.5 604.976L468.014 645L415 626.5L492.5 582.5Z" fill="url(#paint24_linear_35_2)" fill-opacity="0.69"/>
<path d="M553 608.5L598.5 626.5L526 664.5L477 648L553 608.5Z" fill="url(#paint25_linear_35_2)" fill-opacity="0.69"/>
<path d="M606.5 632.476L649 650.126L579 685.476L535 669.476L606.5 632.476Z" fill="url(#paint26_linear_35_2)" fill-opacity="0.69"/>
</g>
<defs>

<linearGradient id="paint0_linear_35_2" x1="321.824" y1="652.302" x2="535.027" y2="144.91" gradientUnits="userSpaceOnUse">
<stop offset="0.16" stop-color="#FDD304"/>
<stop offset="0.47" stop-color="#E0250E"/>
<stop offset="0.685" stop-color="#AD04FD"/>
</linearGradient>
<linearGradient id="paint1_linear_35_2" x1="321.824" y1="652.302" x2="535.027" y2="144.91" gradientUnits="userSpaceOnUse">
<stop offset="0.16" stop-color="#FDD304"/>
<stop offset="0.47" stop-color="#E0250E"/>
<stop offset="0.685" stop-color="#AD04FD"/>
</linearGradient>
<linearGradient id="paint2_linear_35_2" x1="321.824" y1="652.302" x2="535.027" y2="144.91" gradientUnits="userSpaceOnUse">
<stop offset="0.16" stop-color="#FDD304"/>
<stop offset="0.47" stop-color="#E0250E"/>
<stop offset="0.685" stop-color="#AD04FD"/>
</linearGradient>
<linearGradient id="paint3_linear_35_2" x1="321.824" y1="652.302" x2="535.027" y2="144.91" gradientUnits="userSpaceOnUse">
<stop offset="0.16" stop-color="#FDD304"/>
<stop offset="0.47" stop-color="#E0250E"/>
<stop offset="0.685" stop-color="#AD04FD"/>
</linearGradient>
<linearGradient id="paint4_linear_35_2" x1="321.824" y1="652.302" x2="535.027" y2="144.91" gradientUnits="userSpaceOnUse">
<stop offset="0.16" stop-color="#FDD304"/>
<stop offset="0.47" stop-color="#E0250E"/>
<stop offset="0.685" stop-color="#AD04FD"/>
</linearGradient>
<linearGradient id="paint5_linear_35_2" x1="321.824" y1="652.302" x2="535.027" y2="144.91" gradientUnits="userSpaceOnUse">
<stop offset="0.16" stop-color="#FDD304"/>
<stop offset="0.47" stop-color="#E0250E"/>
<stop offset="0.685" stop-color="#AD04FD"/>
</linearGradient>
<linearGradient id="paint6_linear_35_2" x1="321.824" y1="652.302" x2="535.027" y2="144.91" gradientUnits="userSpaceOnUse">
<stop offset="0.16" stop-color="#FDD304"/>
<stop offset="0.47" stop-color="#E0250E"/>
<stop offset="0.685" stop-color="#AD04FD"/>
</linearGradient>
<linearGradient id="paint7_linear_35_2" x1="321.824" y1="652.302" x2="535.027" y2="144.91" gradientUnits="userSpaceOnUse">
<stop offset="0.16" stop-color="#FDD304"/>
<stop offset="0.47" stop-color="#E0250E"/>
<stop offset="0.685" stop-color="#AD04FD"/>
</linearGradient>
<linearGradient id="paint8_linear_35_2" x1="321.824" y1="652.302" x2="535.027" y2="144.91" gradientUnits="userSpaceOnUse">
<stop offset="0.16" stop-color="#FDD304"/>
<stop offset="0.47" stop-color="#E0250E"/>
<stop offset="0.685" stop-color="#AD04FD"/>
</linearGradient>
<linearGradient id="paint9_linear_35_2" x1="604.057" y1="201.464" x2="743.485" y2="604.282" gradientUnits="userSpaceOnUse">
<stop offset="0.100599" stop-color="#0D2D9E"/>
<stop offset="0.492519" stop-color="#445D9A"/>
<stop offset="0.798907" stop-color="#EF0505"/>
</linearGradient>
<linearGradient id="paint10_linear_35_2" x1="604.057" y1="201.464" x2="743.485" y2="604.282" gradientUnits="userSpaceOnUse">
<stop offset="0.100599" stop-color="#0D2D9E"/>
<stop offset="0.492519" stop-color="#445D9A"/>
<stop offset="0.798907" stop-color="#EF0505"/>
</linearGradient>
<linearGradient id="paint11_linear_35_2" x1="604.057" y1="201.464" x2="743.485" y2="604.282" gradientUnits="userSpaceOnUse">
<stop offset="0.100599" stop-color="#0D2D9E"/>
<stop offset="0.492519" stop-color="#445D9A"/>
<stop offset="0.798907" stop-color="#EF0505"/>
</linearGradient>
<linearGradient id="paint12_linear_35_2" x1="604.057" y1="201.464" x2="743.485" y2="604.282" gradientUnits="userSpaceOnUse">
<stop offset="0.100599" stop-color="#0D2D9E"/>
<stop offset="0.492519" stop-color="#445D9A"/>
<stop offset="0.798907" stop-color="#EF0505"/>
</linearGradient>
<linearGradient id="paint13_linear_35_2" x1="604.057" y1="201.464" x2="743.485" y2="604.282" gradientUnits="userSpaceOnUse">
<stop offset="0.100599" stop-color="#0D2D9E"/>
<stop offset="0.492519" stop-color="#445D9A"/>
<stop offset="0.798907" stop-color="#EF0505"/>
</linearGradient>
<linearGradient id="paint14_linear_35_2" x1="604.057" y1="201.464" x2="743.485" y2="604.282" gradientUnits="userSpaceOnUse">
<stop offset="0.100599" stop-color="#0D2D9E"/>
<stop offset="0.492519" stop-color="#445D9A"/>
<stop offset="0.798907" stop-color="#EF0505"/>
</linearGradient>
<linearGradient id="paint15_linear_35_2" x1="604.057" y1="201.464" x2="743.485" y2="604.282" gradientUnits="userSpaceOnUse">
<stop offset="0.100599" stop-color="#0D2D9E"/>
<stop offset="0.492519" stop-color="#445D9A"/>
<stop offset="0.798907" stop-color="#EF0505"/>
</linearGradient>
<linearGradient id="paint16_linear_35_2" x1="604.057" y1="201.464" x2="743.485" y2="604.282" gradientUnits="userSpaceOnUse">
<stop offset="0.100599" stop-color="#0D2D9E"/>
<stop offset="0.492519" stop-color="#445D9A"/>
<stop offset="0.798907" stop-color="#EF0505"/>
</linearGradient>
<linearGradient id="paint17_linear_35_2" x1="604.057" y1="201.464" x2="743.485" y2="604.282" gradientUnits="userSpaceOnUse">
<stop offset="0.100599" stop-color="#0D2D9E"/>
<stop offset="0.492519" stop-color="#445D9A"/>
<stop offset="0.798907" stop-color="#EF0505"/>
</linearGradient>
<linearGradient id="paint18_linear_35_2" x1="308.5" y1="724" x2="746" y2="613.5" gradientUnits="userSpaceOnUse">
<stop offset="0.201328" stop-color="#9E41BF"/>
<stop offset="0.623502" stop-color="#0012B2"/>
<stop offset="0.881237" stop-color="#04B335"/>
</linearGradient>
<linearGradient id="paint19_linear_35_2" x1="308.5" y1="724" x2="746" y2="613.5" gradientUnits="userSpaceOnUse">
<stop offset="0.201328" stop-color="#9E41BF"/>
<stop offset="0.623502" stop-color="#0012B2"/>
<stop offset="0.881237" stop-color="#04B335"/>
</linearGradient>
<linearGradient id="paint20_linear_35_2" x1="308.5" y1="724" x2="746" y2="613.5" gradientUnits="userSpaceOnUse">
<stop offset="0.201328" stop-color="#9E41BF"/>
<stop offset="0.623502" stop-color="#0012B2"/>
<stop offset="0.881237" stop-color="#04B335"/>
</linearGradient>
<linearGradient id="paint21_linear_35_2" x1="308.5" y1="724" x2="746" y2="613.5" gradientUnits="userSpaceOnUse">
<stop offset="0.201328" stop-color="#9E41BF"/>
<stop offset="0.623502" stop-color="#0012B2"/>
<stop offset="0.881237" stop-color="#04B335"/>
</linearGradient>
<linearGradient id="paint22_linear_35_2" x1="308.5" y1="724" x2="746" y2="613.5" gradientUnits="userSpaceOnUse">
<stop offset="0.201328" stop-color="#9E41BF"/>
<stop offset="0.623502" stop-color="#0012B2"/>
<stop offset="0.881237" stop-color="#04B335"/>
</linearGradient>
<linearGradient id="paint23_linear_35_2" x1="308.5" y1="724" x2="746" y2="613.5" gradientUnits="userSpaceOnUse">
<stop offset="0.201328" stop-color="#9E41BF"/>
<stop offset="0.623502" stop-color="#0012B2"/>
<stop offset="0.881237" stop-color="#04B335"/>
</linearGradient>
<linearGradient id="paint24_linear_35_2" x1="308.5" y1="724" x2="746" y2="613.5" gradientUnits="userSpaceOnUse">
<stop offset="0.201328" stop-color="#9E41BF"/>
<stop offset="0.623502" stop-color="#0012B2"/>
<stop offset="0.881237" stop-color="#04B335"/>
</linearGradient>
<linearGradient id="paint25_linear_35_2" x1="308.5" y1="724" x2="746" y2="613.5" gradientUnits="userSpaceOnUse">
<stop offset="0.201328" stop-color="#9E41BF"/>
<stop offset="0.623502" stop-color="#0012B2"/>
<stop offset="0.881237" stop-color="#04B335"/>
</linearGradient>
<linearGradient id="paint26_linear_35_2" x1="308.5" y1="724" x2="746" y2="613.5" gradientUnits="userSpaceOnUse">
<stop offset="0.201328" stop-color="#9E41BF"/>
<stop offset="0.623502" stop-color="#0012B2"/>
<stop offset="0.881237" stop-color="#04B335"/>
</linearGradient>
</defs>
</svg>
