<svg width="184" height="201" viewBox="0 0 184 201" fill="none" xmlns="http://www.w3.org/2000/svg">
<g filter="url(#filter0_dd_220_131)">
<mask id="path-1-inside-1_220_131" fill="white">
<path d="M91.7176 0.973633C88.8428 0.973633 85.9676 1.61785 83.7407 2.90629L12.6378 44.0358C8.18322 46.6127 8.18322 50.6874 12.6378 53.2643L83.7407 94.3938C88.1953 96.9707 95.2394 96.9707 99.6935 94.3938L170.796 53.2643C175.251 50.6879 175.251 46.6127 170.796 44.0362L99.6935 2.90676C97.4662 1.61739 94.5919 0.973633 91.7176 0.973633ZM91.334 25.6951C95.5295 25.7404 99.3014 26.7011 102.65 28.5773C104.94 29.8608 106.44 31.3252 107.149 32.9705C107.835 34.6031 107.875 36.7543 107.27 39.4243L106.525 42.0803C106.032 43.981 105.93 45.348 106.218 46.1812C106.483 47.002 107.141 47.707 108.193 48.2963L109.771 49.1798L94.3005 57.8469L92.5815 56.8848C90.665 55.8114 89.4419 54.5981 88.9122 53.2448C88.3592 51.8787 88.4513 49.7057 89.1887 46.7258L89.898 44.0502C90.3108 42.4567 90.3511 41.1506 90.0191 40.1318C89.715 39.0966 89.0254 38.2778 87.9505 37.6755C86.3142 36.7588 84.3545 36.4294 82.0715 36.6873C79.7649 36.9325 77.3832 37.7432 74.9265 39.1194C72.6124 40.4159 70.51 42.0389 68.6193 43.9883C66.7055 45.9256 65.0629 48.1425 63.6913 50.639L52.6827 44.4705C55.1581 41.9849 57.5904 39.8107 59.9796 37.9478C62.369 36.0859 64.8922 34.4102 67.5491 32.9207C74.5201 29.015 81.0026 26.6928 86.9967 25.9539C88.4353 25.7696 89.8838 25.6835 91.334 25.6951ZM114.96 52.0876L127.442 59.0809L111.972 67.7481L99.4897 60.7552L114.96 52.0876ZM7.88997 61.0555C5.21208 60.9833 3.3916 63.0738 3.3916 66.7715V140.175C3.3916 145.32 6.91526 151.423 11.3699 153.995L79.7623 193.49C84.2169 196.062 87.7406 194.028 87.7406 188.884V115.479C87.7406 110.335 84.2169 104.233 79.7623 101.66L11.3699 62.1656C10.1177 61.4418 8.93775 61.0834 7.88997 61.0555ZM175.821 61.0564C174.774 61.0843 173.595 61.4427 172.342 62.1666L103.948 101.661C99.4929 104.234 95.9693 110.336 95.9693 115.481V188.886C95.9693 194.03 99.4929 196.063 103.948 193.49L172.343 153.997C176.797 151.424 180.32 145.323 180.32 140.178V66.7724C180.32 63.0756 178.5 60.9847 175.821 61.0564ZM26.1497 90.7314C29.2001 91.3676 31.9858 92.1454 34.5068 93.0649C37.034 93.9875 39.4761 95.1283 41.8055 96.4745C47.956 100.026 52.6446 104.073 55.8713 108.615C59.0979 113.13 60.7113 117.946 60.7113 123.063C60.7113 125.689 60.2197 127.762 59.2367 129.284C58.2533 130.779 56.5769 132.035 54.2076 133.052L51.7872 133.945C50.073 134.617 48.9512 135.309 48.4218 136.021C47.8927 136.706 47.6281 137.651 47.6281 138.857V140.665L33.9781 132.784V130.815C33.9777 128.617 34.3936 126.915 35.2255 125.708C36.0575 124.474 37.8095 123.316 40.4817 122.233L42.9022 121.299C44.3389 120.736 45.385 120.027 46.0404 119.173C46.7203 118.334 47.0604 117.298 47.0607 116.065C47.0607 114.191 46.4556 112.382 45.2454 110.638C44.0354 108.868 42.3465 107.356 40.1787 106.104C38.1368 104.926 35.9309 104.108 33.561 103.65C31.1914 103.166 28.721 103.066 26.1497 103.35V90.7314ZM151.614 94.7378C152.322 94.7378 152.979 94.8143 153.584 94.9673C156.811 95.7564 158.424 98.7097 158.424 103.827C158.424 106.452 157.933 109.094 156.949 111.751C155.966 114.381 154.29 117.573 151.92 121.325L149.5 125.013C147.786 127.664 146.664 129.651 146.135 130.975C145.605 132.271 145.341 133.522 145.341 134.728V136.536L131.691 144.418V142.449C131.691 140.252 132.107 138.069 132.938 135.901C133.771 133.706 135.523 130.525 138.194 126.357L140.615 122.628C142.052 120.405 143.098 118.488 143.753 116.878C144.433 115.252 144.773 113.823 144.774 112.591C144.774 110.716 144.169 109.605 142.959 109.259C141.749 108.886 140.06 109.325 137.891 110.576C135.85 111.756 133.644 113.485 131.275 115.764C128.905 118.016 126.435 120.769 123.863 124.021V111.402C126.914 108.516 129.699 106.078 132.219 104.086C134.74 102.095 137.173 100.423 139.517 99.0695C144.515 96.1836 148.547 94.74 151.614 94.7378ZM33.9776 138.732L47.6281 146.613V160.92L33.9781 153.039L33.9776 138.732ZM145.341 142.484V156.79L131.691 164.671V150.365L145.341 142.484Z"/>
</mask>
<path d="M91.7176 0.973633C88.8428 0.973633 85.9676 1.61785 83.7407 2.90629L12.6378 44.0358C8.18322 46.6127 8.18322 50.6874 12.6378 53.2643L83.7407 94.3938C88.1953 96.9707 95.2394 96.9707 99.6935 94.3938L170.796 53.2643C175.251 50.6879 175.251 46.6127 170.796 44.0362L99.6935 2.90676C97.4662 1.61739 94.5919 0.973633 91.7176 0.973633ZM91.334 25.6951C95.5295 25.7404 99.3014 26.7011 102.65 28.5773C104.94 29.8608 106.44 31.3252 107.149 32.9705C107.835 34.6031 107.875 36.7543 107.27 39.4243L106.525 42.0803C106.032 43.981 105.93 45.348 106.218 46.1812C106.483 47.002 107.141 47.707 108.193 48.2963L109.771 49.1798L94.3005 57.8469L92.5815 56.8848C90.665 55.8114 89.4419 54.5981 88.9122 53.2448C88.3592 51.8787 88.4513 49.7057 89.1887 46.7258L89.898 44.0502C90.3108 42.4567 90.3511 41.1506 90.0191 40.1318C89.715 39.0966 89.0254 38.2778 87.9505 37.6755C86.3142 36.7588 84.3545 36.4294 82.0715 36.6873C79.7649 36.9325 77.3832 37.7432 74.9265 39.1194C72.6124 40.4159 70.51 42.0389 68.6193 43.9883C66.7055 45.9256 65.0629 48.1425 63.6913 50.639L52.6827 44.4705C55.1581 41.9849 57.5904 39.8107 59.9796 37.9478C62.369 36.0859 64.8922 34.4102 67.5491 32.9207C74.5201 29.015 81.0026 26.6928 86.9967 25.9539C88.4353 25.7696 89.8838 25.6835 91.334 25.6951ZM114.96 52.0876L127.442 59.0809L111.972 67.7481L99.4897 60.7552L114.96 52.0876ZM7.88997 61.0555C5.21208 60.9833 3.3916 63.0738 3.3916 66.7715V140.175C3.3916 145.32 6.91526 151.423 11.3699 153.995L79.7623 193.49C84.2169 196.062 87.7406 194.028 87.7406 188.884V115.479C87.7406 110.335 84.2169 104.233 79.7623 101.66L11.3699 62.1656C10.1177 61.4418 8.93775 61.0834 7.88997 61.0555ZM175.821 61.0564C174.774 61.0843 173.595 61.4427 172.342 62.1666L103.948 101.661C99.4929 104.234 95.9693 110.336 95.9693 115.481V188.886C95.9693 194.03 99.4929 196.063 103.948 193.49L172.343 153.997C176.797 151.424 180.32 145.323 180.32 140.178V66.7724C180.32 63.0756 178.5 60.9847 175.821 61.0564ZM26.1497 90.7314C29.2001 91.3676 31.9858 92.1454 34.5068 93.0649C37.034 93.9875 39.4761 95.1283 41.8055 96.4745C47.956 100.026 52.6446 104.073 55.8713 108.615C59.0979 113.13 60.7113 117.946 60.7113 123.063C60.7113 125.689 60.2197 127.762 59.2367 129.284C58.2533 130.779 56.5769 132.035 54.2076 133.052L51.7872 133.945C50.073 134.617 48.9512 135.309 48.4218 136.021C47.8927 136.706 47.6281 137.651 47.6281 138.857V140.665L33.9781 132.784V130.815C33.9777 128.617 34.3936 126.915 35.2255 125.708C36.0575 124.474 37.8095 123.316 40.4817 122.233L42.9022 121.299C44.3389 120.736 45.385 120.027 46.0404 119.173C46.7203 118.334 47.0604 117.298 47.0607 116.065C47.0607 114.191 46.4556 112.382 45.2454 110.638C44.0354 108.868 42.3465 107.356 40.1787 106.104C38.1368 104.926 35.9309 104.108 33.561 103.65C31.1914 103.166 28.721 103.066 26.1497 103.35V90.7314ZM151.614 94.7378C152.322 94.7378 152.979 94.8143 153.584 94.9673C156.811 95.7564 158.424 98.7097 158.424 103.827C158.424 106.452 157.933 109.094 156.949 111.751C155.966 114.381 154.29 117.573 151.92 121.325L149.5 125.013C147.786 127.664 146.664 129.651 146.135 130.975C145.605 132.271 145.341 133.522 145.341 134.728V136.536L131.691 144.418V142.449C131.691 140.252 132.107 138.069 132.938 135.901C133.771 133.706 135.523 130.525 138.194 126.357L140.615 122.628C142.052 120.405 143.098 118.488 143.753 116.878C144.433 115.252 144.773 113.823 144.774 112.591C144.774 110.716 144.169 109.605 142.959 109.259C141.749 108.886 140.06 109.325 137.891 110.576C135.85 111.756 133.644 113.485 131.275 115.764C128.905 118.016 126.435 120.769 123.863 124.021V111.402C126.914 108.516 129.699 106.078 132.219 104.086C134.74 102.095 137.173 100.423 139.517 99.0695C144.515 96.1836 148.547 94.74 151.614 94.7378ZM33.9776 138.732L47.6281 146.613V160.92L33.9781 153.039L33.9776 138.732ZM145.341 142.484V156.79L131.691 164.671V150.365L145.341 142.484Z" stroke="url(#paint0_linear_220_131)" stroke-width="40.8485" style="mix-blend-mode:screen" shape-rendering="crispEdges" mask="url(#path-1-inside-1_220_131)"/>
</g>
<defs>
<filter id="filter0_dd_220_131" x="0.24941" y="0.973633" width="183.212" height="199.914" filterUnits="userSpaceOnUse" color-interpolation-filters="sRGB">
<feFlood flood-opacity="0" result="BackgroundImageFix"/>
<feColorMatrix in="SourceAlpha" type="matrix" values="0 0 0 0 0 0 0 0 0 0 0 0 0 0 0 0 0 0 127 0" result="hardAlpha"/>
<feOffset dy="3.14219"/>
<feGaussianBlur stdDeviation="1.5711"/>
<feComposite in2="hardAlpha" operator="out"/>
<feColorMatrix type="matrix" values="0 0 0 0 0 0 0 0 0 0 0 0 0 0 0 0 0 0 0.25 0"/>
<feBlend mode="normal" in2="BackgroundImageFix" result="effect1_dropShadow_220_131"/>
<feColorMatrix in="SourceAlpha" type="matrix" values="0 0 0 0 0 0 0 0 0 0 0 0 0 0 0 0 0 0 127 0" result="hardAlpha"/>
<feOffset dy="3.14219"/>
<feGaussianBlur stdDeviation="1.5711"/>
<feComposite in2="hardAlpha" operator="out"/>
<feColorMatrix type="matrix" values="0 0 0 0 0 0 0 0 0 0 0 0 0 0 0 0 0 0 0.25 0"/>
<feBlend mode="normal" in2="effect1_dropShadow_220_131" result="effect2_dropShadow_220_131"/>
<feBlend mode="normal" in="SourceGraphic" in2="effect2_dropShadow_220_131" result="shape"/>
</filter>
<linearGradient id="paint0_linear_220_131" x1="6.95683" y1="136.36" x2="175.618" y2="-22.3543" gradientUnits="userSpaceOnUse">
<stop offset="0.16" stop-color="#FDD304"/>
<stop offset="0.47" stop-color="#E0250E"/>
<stop offset="0.685" stop-color="#AD04FD"/>
</linearGradient>
</defs>
</svg>
