<?xml version="1.0" ?><svg xmlns="http://www.w3.org/2000/svg" width="1200pt" height="1200pt" version="1.1" viewBox="0 0 1200 1200">
 <!-- <rect width="100%" height="100%" fill="lightgray"></rect> -->
 
 <!-- F face start -->
 <path class="f" d="m84.883 507.35 113.79 56.746c13.41 6.6836 24.379-1.6094 24.379-18.441v-142.83c0-16.832-10.969-36.078-24.379-42.77l-113.79-56.746c-13.418-6.6914-24.379 1.6094-24.379 18.441v142.83c0 16.832 10.965 36.07 24.379 42.77z" fill-rule="evenodd" fill="#009B48"/>
 <path class="f" d="m265.5 597.43 113.79 56.746c13.41 6.6992 24.379-1.6055 24.379-18.441v-142.82c0-16.84-10.969-36.078-24.379-42.77l-113.79-56.754c-13.418-6.6836-24.379 1.6094-24.379 18.449v142.82c0 16.832 10.965 36.078 24.379 42.77z" fill-rule="evenodd" fill="#FF5900"/>
 <path class="f" d="m446.12 687.51 113.79 56.746c13.41 6.6914 24.379-1.6055 24.379-18.441v-142.82c0-16.84-10.969-36.082-24.379-42.77l-113.79-56.754c-13.41-6.6914-24.379 1.6094-24.379 18.449v142.83c0 16.832 10.969 36.078 24.379 42.762z" fill-rule="evenodd" fill="#009B48"/>
 <path class="f" d="m84.883 734.06 113.79 56.746c13.41 6.6914 24.379-1.6055 24.379-18.438v-142.83c0-16.84-10.969-36.078-24.379-42.77l-113.79-56.754c-13.418-6.6914-24.379 1.6094-24.379 18.449v142.82c0 16.84 10.965 36.078 24.379 42.77z" fill-rule="evenodd" fill="#009B48"/>
 <path class="f" d="m265.5 824.14 113.79 56.746c13.41 6.6914 24.379-1.6094 24.379-18.441v-142.83c0-16.84-10.969-36.078-24.379-42.77l-113.79-56.746c-13.418-6.6914-24.379 1.6094-24.379 18.441v142.83c0 16.832 10.965 36.078 24.379 42.77z" fill-rule="evenodd" fill="#009B48"/>
 <path class="f" d="m446.12 914.22 113.79 56.754c13.41 6.6914 24.379-1.6055 24.379-18.449v-142.82c0-16.84-10.969-36.082-24.379-42.762l-113.79-56.754c-13.41-6.6914-24.379 1.6055-24.379 18.441v142.83c0 16.832 10.969 36.078 24.379 42.762z" fill-rule="evenodd" fill="#009B48"/>
 <path class="f" d="m84.883 960.78 113.79 56.746c13.41 6.6914 24.379-1.6094 24.379-18.441v-142.83c0-16.84-10.969-36.078-24.379-42.77l-113.79-56.746c-13.418-6.6914-24.379 1.6094-24.379 18.441v142.83c0 16.832 10.965 36.07 24.379 42.77z" fill-rule="evenodd" fill="#009B48"/>
 <path class="f" d="m265.5 1050.9 113.79 56.746c13.41 6.6992 24.379-1.6055 24.379-18.441v-142.82c0-16.84-10.969-36.078-24.379-42.77l-113.79-56.754c-13.418-6.6836-24.379 1.6094-24.379 18.449v142.82c0 16.84 10.965 36.078 24.379 42.77z" fill-rule="evenodd" fill="#009B48"/>
 <path class="f" d="m446.12 1140.9 113.79 56.746c13.41 6.6914 24.379-1.6055 24.379-18.441v-142.83c0-16.832-10.969-36.078-24.379-42.762l-113.79-56.754c-13.41-6.6836-24.379 1.6094-24.379 18.449v142.82c0 16.84 10.969 36.082 24.379 42.77z" fill-rule="evenodd" fill="#009B48"/>
 <!-- F face end -->

<!-- R face start -->
 <path class="r" d="m753.89 687.51-113.79 56.746c-13.41 6.6914-24.379-1.6055-24.379-18.441v-142.82c0-16.84 10.969-36.082 24.379-42.77l113.79-56.754c13.41-6.6914 24.379 1.6094 24.379 18.449v142.83c0 16.832-10.969 36.07-24.379 42.762z" fill-rule="evenodd" fill="#B90000"/>
 <path class="r" d="m934.5 597.43-113.79 56.742c-13.41 6.6914-24.379-1.6055-24.379-18.438v-142.83c0-16.84 10.969-36.078 24.379-42.77l113.79-56.754c13.41-6.6836 24.379 1.6172 24.379 18.449v142.83c0 16.832-10.969 36.07-24.379 42.77z" fill-rule="evenodd" fill="#009B48"/>
 <path class="r" d="m1115.1 507.35-113.79 56.746c-13.41 6.6836-24.379-1.6094-24.379-18.441v-142.83c0-16.832 10.969-36.078 24.379-42.77l113.79-56.754c13.41-6.6836 24.379 1.6172 24.379 18.449v142.83c0 16.832-10.969 36.078-24.379 42.77z" fill-rule="evenodd" fill="#B90000"/>
 <path class="r" d="m753.89 914.22-113.79 56.754c-13.41 6.6914-24.379-1.6055-24.379-18.449v-142.82c0-16.84 10.969-36.078 24.379-42.762l113.79-56.754c13.41-6.6914 24.379 1.6055 24.379 18.441v142.83c0 16.832-10.969 36.078-24.379 42.762z" fill-rule="evenodd" fill="#B90000"/>
 <path class="r" d="m934.5 824.14-113.79 56.746c-13.41 6.6914-24.379-1.6055-24.379-18.441v-142.82c0-16.844 10.969-36.082 24.379-42.77l113.79-56.754c13.41-6.6914 24.379 1.6094 24.379 18.449v142.82c0 16.832-10.969 36.078-24.379 42.77z" fill-rule="evenodd" fill="#B90000"/>
 <path class="r" d="m1115.1 734.06-113.79 56.746c-13.41 6.6914-24.379-1.6055-24.379-18.441v-142.82c0-16.84 10.969-36.078 24.379-42.77l113.79-56.754c13.41-6.6836 24.379 1.6094 24.379 18.449v142.82c0 16.832-10.969 36.078-24.379 42.77z" fill-rule="evenodd" fill="#B90000"/>
 <path class="r" d="m753.89 1140.9-113.79 56.746c-13.41 6.6914-24.379-1.6055-24.379-18.441v-142.83c0-16.832 10.969-36.078 24.379-42.762l113.79-56.754c13.41-6.6914 24.379 1.6094 24.379 18.449v142.82c0 16.84-10.969 36.082-24.379 42.77z" fill-rule="evenodd" fill="#B90000"/>
 <path class="r" d="m934.5 1050.9-113.79 56.746c-13.41 6.6992-24.379-1.6055-24.379-18.441v-142.82c0-16.84 10.969-36.082 24.379-42.77l113.79-56.746c13.41-6.6914 24.379 1.6055 24.379 18.441v142.83c0 16.832-10.969 36.078-24.379 42.762z" fill-rule="evenodd" fill="#B90000"/>
 <path class="r" d="m1115.1 960.78-113.79 56.742c-13.41 6.6992-24.379-1.6055-24.379-18.438v-142.83c0-16.84 10.969-36.078 24.379-42.77l113.79-56.746c13.41-6.6914 24.379 1.6094 24.379 18.441v142.83c0 16.832-10.969 36.078-24.379 42.77z" fill-rule="evenodd" fill="#B90000"/>
 <!-- R face end -->

<!-- U face start -->
 <path class="u" d="m625 146.82 116.67-58.332c13.746-6.875 13.746-18.121 0-25.004l-116.67-58.332c-13.754-6.875-36.242-6.875-50 0l-116.66 58.332c-13.754 6.8828-13.754 18.129 0 25.004l116.66 58.332c13.762 6.8828 36.25 6.8828 50 0z" fill-rule="evenodd" fill="#FFFFFF"/>
 <path class="u" d="m810.19 239.41 116.66-58.324c13.754-6.8828 13.754-18.129 0-25.004l-116.66-58.332c-13.754-6.8828-36.25-6.8828-50 0l-116.66 58.332c-13.762 6.875-13.762 18.121 0 25.004l116.66 58.324c13.754 6.875 36.25 6.875 50 0z" fill-rule="evenodd" fill="#FFFFFF"/>
 <path class="u" d="m995.38 332.01 116.66-58.34c13.754-6.875 13.754-18.121 0-24.996l-116.66-58.332c-13.762-6.875-36.254-6.875-50 0l-116.67 58.332c-13.754 6.875-13.754 18.121 0 24.996l116.67 58.34c13.746 6.8711 36.242 6.8711 50 0z" fill-rule="evenodd" fill="#FFFFFF"/>
 <path class="u" d="m439.82 239.41 116.66-58.324c13.754-6.8828 13.754-18.129 0-25.004l-116.66-58.332c-13.754-6.8828-36.25-6.8828-50 0l-116.67 58.332c-13.754 6.875-13.754 18.121 0 25.004l116.67 58.324c13.754 6.875 36.25 6.875 50 0z" fill-rule="evenodd" fill="#FFFFFF"/>
 <path class="u" d="m625 332.01 116.67-58.34c13.746-6.875 13.746-18.121 0-24.996l-116.67-58.332c-13.754-6.875-36.242-6.875-50 0l-116.66 58.332c-13.754 6.875-13.754 18.121 0 24.996l116.66 58.34c13.762 6.8711 36.25 6.8711 50 0z" fill-rule="evenodd" fill="#FFFFFF"/>
 <path class="u" d="m810.19 424.61 116.66-58.34c13.754-6.8711 13.754-18.121 0-24.992l-116.66-58.34c-13.754-6.875-36.25-6.875-50 0l-116.66 58.34c-13.762 6.8711-13.762 18.121 0 24.992l116.66 58.34c13.754 6.875 36.25 6.875 50 0z" fill-rule="evenodd" fill="#FFFFFF"/>
 <path class="u" d="m254.62 332.01 116.67-58.34c13.754-6.875 13.754-18.121 0-24.996l-116.67-58.332c-13.746-6.875-36.25-6.875-50 0l-116.67 58.332c-13.746 6.875-13.746 18.121 0 24.996l116.67 58.34c13.754 6.8711 36.254 6.8711 50 0z" fill-rule="evenodd" fill="#FFFFFF"/>
 <path class="u" d="m439.82 424.61 116.66-58.34c13.754-6.8711 13.754-18.121 0-24.992l-116.66-58.34c-13.754-6.875-36.25-6.875-50 0l-116.67 58.34c-13.754 6.8711-13.754 18.121 0 24.992l116.67 58.34c13.754 6.875 36.25 6.875 50 0z" fill-rule="evenodd" fill="#FFFFFF"/>
 <path class="u" d="m625 517.2 116.67-58.34c13.746-6.875 13.746-18.129 0-24.996l-116.67-58.34c-13.754-6.8711-36.242-6.8711-50 0l-116.66 58.34c-13.754 6.8711-13.754 18.121 0 24.996l116.66 58.34c13.762 6.8711 36.25 6.8711 50 0z" fill-rule="evenodd" fill="#FFFFFF"/>
 <!-- U face end -->
</svg>