<svg width="106" height="103" viewBox="0 0 106 103" fill="none" xmlns="http://www.w3.org/2000/svg">
<path d="M105.071 32.5207L90.4272 23.5513L86.1078 39.5907L101.173 48.4547L105.071 32.5207Z" fill="url(#paint0_linear_230_10)" fill-opacity="0.69" style="mix-blend-mode:screen"/>
<path d="M87.4774 21.4481L72.7283 12.1621L70.0915 20.3879L67.6715 28.4126L82.842 37.2766L87.4774 21.4481Z" fill="url(#paint1_linear_230_10)" fill-opacity="0.69" style="mix-blend-mode:screen"/>
<path d="M69.041 10.4687L53.6598 0.976646L50.9178 9.41849L48.2869 17.0161L63.9842 26.5082L69.041 10.4687Z" fill="url(#paint2_linear_230_10)" fill-opacity="0.69" style="mix-blend-mode:screen"/>
<path d="M63.4574 29.9905L47.0838 20.3879L44.1783 29.0458L41.3308 37.5881L58.0845 46.5626L63.4574 29.9905Z" fill="url(#paint3_linear_230_10)" fill-opacity="0.69" style="mix-blend-mode:screen"/>
<path d="M81.7885 41.0704L66.7233 32.312L63.9842 40.6483L61.3266 48.4547L77.153 57.4314L81.7885 41.0704Z" fill="url(#paint4_linear_230_10)" fill-opacity="0.69" style="mix-blend-mode:screen"/>
<path d="M99.9296 51.5172L85.265 43.0803L82.842 51.5172L80.4159 59.8585L95.5894 68.1948L99.9296 51.5172Z" fill="url(#paint5_linear_230_10)" fill-opacity="0.69" style="mix-blend-mode:screen"/>
<path d="M94.7466 71.8831L79.7868 63.7628L77.6797 71.5665L75.046 80.752L90.4272 88.8773L94.7466 71.8831Z" fill="url(#paint6_linear_230_10)" fill-opacity="0.69" style="mix-blend-mode:screen"/>
<path d="M76.2049 61.6597L60.61 52.8875L58.3976 59.8585L54.924 70.0892L71.4641 78.7471L76.2049 61.6597Z" fill="url(#paint7_linear_230_10)" fill-opacity="0.69" style="mix-blend-mode:screen"/>
<path d="M56.8203 50.2559L40.172 41.0704L38.1703 47.4068L34.5884 58.5872L51.1284 67.8732L56.8203 50.2559Z" fill="url(#paint8_linear_230_10)" fill-opacity="0.69" style="mix-blend-mode:screen"/>
<path d="M50.4964 0.549553L40.9094 7.40855L38.1703 15.5338L35.7472 22.7094L45.6502 16.4835L50.4964 0.549553Z" fill="url(#paint9_linear_230_10)" fill-opacity="0.69" style="mix-blend-mode:screen"/>
<path d="M38.5918 8.35825L29.3208 15.1117L26.2657 23.6591L24.3693 29.9905L33.1135 24.3978L38.5918 8.35825Z" fill="url(#paint10_linear_230_10)" fill-opacity="0.69" style="mix-blend-mode:screen"/>
<path d="M28.478 15.2173L19.8393 21.3376L16.6787 30.5181L14.6771 36.1108L22.8944 31.0457L28.478 15.2173Z" fill="url(#paint11_linear_230_10)" fill-opacity="0.69" style="mix-blend-mode:screen"/>
<path d="M44.1783 20.2646L33.6432 27.1236L30.9041 35.3544L28.797 42.2361L38.5946 36.96L44.1783 20.2646Z" fill="url(#paint12_linear_230_10)" fill-opacity="0.69" style="mix-blend-mode:screen"/>
<path d="M36.9015 41.18L26.9007 46.8782L24.0563 55.8486L21.8439 63.3407L30.9041 58.5872L36.9015 41.18Z" fill="url(#paint13_linear_230_10)" fill-opacity="0.69" style="mix-blend-mode:screen"/>
<path d="M25.1068 47.8224L16.2573 52.8875L12.6319 63.3407L10.6738 68.6169L19.3125 64.1839L25.1068 47.8224Z" fill="url(#paint14_linear_230_10)" fill-opacity="0.69" style="mix-blend-mode:screen"/>
<path d="M14.0479 53.8386L6.04128 58.1651L2.67005 67.8732L0.457694 74.2046L8.67505 70.0892L14.0479 53.8386Z" fill="url(#paint15_linear_230_10)" fill-opacity="0.69" style="mix-blend-mode:screen"/>
<path d="M21.06 34.6385L12.6319 40.0202L9.78747 48.3565L7.36441 55.321L15.7925 50.2559L21.06 34.6385Z" fill="url(#paint16_linear_230_10)" fill-opacity="0.69" style="mix-blend-mode:screen"/>
<path d="M31.9576 27.4629L23.1363 33.2617L20.2918 41.0704L17.5527 49.1956L26.8236 43.7085L31.9576 27.4629Z" fill="url(#paint17_linear_230_10)" fill-opacity="0.69" style="mix-blend-mode:screen"/>
<path d="M32.1653 61.2303L22.2653 66.1899L32.1653 71.5665L39.2267 75.1593L49.7589 70.7273L32.1653 61.2303Z" fill="url(#paint18_linear_230_10)" fill-opacity="0.69"/>
<path d="M20.7348 67.1873L11.4142 71.7248L27.5328 80.3299L37.2251 76.0035L20.7348 67.1873Z" fill="url(#paint19_linear_230_10)" fill-opacity="0.69"/>
<path d="M10.147 72.4107L1.50825 76.6316L17.5527 84.8674L25.9526 81.0686L10.147 72.4107Z" fill="url(#paint20_linear_230_10)" fill-opacity="0.69"/>
<path d="M47.7602 92.1485L38.4893 95.3092L52.7116 102.701L62.5093 99.6406L47.7602 92.1485Z" fill="url(#paint21_linear_230_10)" fill-opacity="0.69"/>
<path d="M59.8755 87.9276L50.1832 91.3043L64.827 99.2186L75.046 96.0529L59.8755 87.9276Z" fill="url(#paint22_linear_230_10)" fill-opacity="0.69"/>
<path d="M73.5711 83.3901L62.5093 87.1889L77.2583 94.9976L88.5309 91.7264L73.5711 83.3901Z" fill="url(#paint23_linear_230_10)" fill-opacity="0.69"/>
<path d="M53.2384 72.3102L42.4926 77.0537L58.3976 85.5006L69.5677 81.5962L53.2384 72.3102Z" fill="url(#paint24_linear_230_10)" fill-opacity="0.69"/>
<path d="M40.491 77.7974L30.9041 81.5962L46.1799 89.616L56.5043 86.1337L40.491 77.7974Z" fill="url(#paint25_linear_230_10)" fill-opacity="0.69"/>
<path d="M29.2184 82.8575L20.2636 86.5823L35.0127 94.0429L44.2836 90.6662L29.2184 82.8575Z" fill="url(#paint26_linear_230_10)" fill-opacity="0.69"/>
<defs>
<linearGradient id="paint0_linear_230_10" x1="89.2001" y1="87.0415" x2="44.1529" y2="-19.9888" gradientUnits="userSpaceOnUse">
<stop offset="0.16" stop-color="#FDD304"/>
<stop offset="0.47" stop-color="#E0250E"/>
<stop offset="0.685" stop-color="#AD04FD"/>
</linearGradient>
<linearGradient id="paint1_linear_230_10" x1="89.2001" y1="87.0415" x2="44.1529" y2="-19.9888" gradientUnits="userSpaceOnUse">
<stop offset="0.16" stop-color="#FDD304"/>
<stop offset="0.47" stop-color="#E0250E"/>
<stop offset="0.685" stop-color="#AD04FD"/>
</linearGradient>
<linearGradient id="paint2_linear_230_10" x1="89.2001" y1="87.0415" x2="44.1529" y2="-19.9888" gradientUnits="userSpaceOnUse">
<stop offset="0.16" stop-color="#FDD304"/>
<stop offset="0.47" stop-color="#E0250E"/>
<stop offset="0.685" stop-color="#AD04FD"/>
</linearGradient>
<linearGradient id="paint3_linear_230_10" x1="89.2001" y1="87.0415" x2="44.1529" y2="-19.9888" gradientUnits="userSpaceOnUse">
<stop offset="0.16" stop-color="#FDD304"/>
<stop offset="0.47" stop-color="#E0250E"/>
<stop offset="0.685" stop-color="#AD04FD"/>
</linearGradient>
<linearGradient id="paint4_linear_230_10" x1="89.2001" y1="87.0415" x2="44.1529" y2="-19.9888" gradientUnits="userSpaceOnUse">
<stop offset="0.16" stop-color="#FDD304"/>
<stop offset="0.47" stop-color="#E0250E"/>
<stop offset="0.685" stop-color="#AD04FD"/>
</linearGradient>
<linearGradient id="paint5_linear_230_10" x1="89.2001" y1="87.0415" x2="44.1529" y2="-19.9888" gradientUnits="userSpaceOnUse">
<stop offset="0.16" stop-color="#FDD304"/>
<stop offset="0.47" stop-color="#E0250E"/>
<stop offset="0.685" stop-color="#AD04FD"/>
</linearGradient>
<linearGradient id="paint6_linear_230_10" x1="89.2001" y1="87.0415" x2="44.1529" y2="-19.9888" gradientUnits="userSpaceOnUse">
<stop offset="0.16" stop-color="#FDD304"/>
<stop offset="0.47" stop-color="#E0250E"/>
<stop offset="0.685" stop-color="#AD04FD"/>
</linearGradient>
<linearGradient id="paint7_linear_230_10" x1="89.2001" y1="87.0415" x2="44.1529" y2="-19.9888" gradientUnits="userSpaceOnUse">
<stop offset="0.16" stop-color="#FDD304"/>
<stop offset="0.47" stop-color="#E0250E"/>
<stop offset="0.685" stop-color="#AD04FD"/>
</linearGradient>
<linearGradient id="paint8_linear_230_10" x1="89.2001" y1="87.0415" x2="44.1529" y2="-19.9888" gradientUnits="userSpaceOnUse">
<stop offset="0.16" stop-color="#FDD304"/>
<stop offset="0.47" stop-color="#E0250E"/>
<stop offset="0.685" stop-color="#AD04FD"/>
</linearGradient>
<linearGradient id="paint9_linear_230_10" x1="29.7331" y1="-8.1059" x2="0.269641" y2="76.8774" gradientUnits="userSpaceOnUse">
<stop offset="0.100599" stop-color="#0D2D9E"/>
<stop offset="0.492519" stop-color="#445D9A"/>
<stop offset="0.798907" stop-color="#EF0505"/>
</linearGradient>
<linearGradient id="paint10_linear_230_10" x1="29.7331" y1="-8.1059" x2="0.269641" y2="76.8774" gradientUnits="userSpaceOnUse">
<stop offset="0.100599" stop-color="#0D2D9E"/>
<stop offset="0.492519" stop-color="#445D9A"/>
<stop offset="0.798907" stop-color="#EF0505"/>
</linearGradient>
<linearGradient id="paint11_linear_230_10" x1="29.7331" y1="-8.1059" x2="0.269641" y2="76.8774" gradientUnits="userSpaceOnUse">
<stop offset="0.100599" stop-color="#0D2D9E"/>
<stop offset="0.492519" stop-color="#445D9A"/>
<stop offset="0.798907" stop-color="#EF0505"/>
</linearGradient>
<linearGradient id="paint12_linear_230_10" x1="29.7331" y1="-8.1059" x2="0.269641" y2="76.8774" gradientUnits="userSpaceOnUse">
<stop offset="0.100599" stop-color="#0D2D9E"/>
<stop offset="0.492519" stop-color="#445D9A"/>
<stop offset="0.798907" stop-color="#EF0505"/>
</linearGradient>
<linearGradient id="paint13_linear_230_10" x1="29.7331" y1="-8.1059" x2="0.269641" y2="76.8774" gradientUnits="userSpaceOnUse">
<stop offset="0.100599" stop-color="#0D2D9E"/>
<stop offset="0.492519" stop-color="#445D9A"/>
<stop offset="0.798907" stop-color="#EF0505"/>
</linearGradient>
<linearGradient id="paint14_linear_230_10" x1="29.7331" y1="-8.1059" x2="0.269641" y2="76.8774" gradientUnits="userSpaceOnUse">
<stop offset="0.100599" stop-color="#0D2D9E"/>
<stop offset="0.492519" stop-color="#445D9A"/>
<stop offset="0.798907" stop-color="#EF0505"/>
</linearGradient>
<linearGradient id="paint15_linear_230_10" x1="29.7331" y1="-8.1059" x2="0.269641" y2="76.8774" gradientUnits="userSpaceOnUse">
<stop offset="0.100599" stop-color="#0D2D9E"/>
<stop offset="0.492519" stop-color="#445D9A"/>
<stop offset="0.798907" stop-color="#EF0505"/>
</linearGradient>
<linearGradient id="paint16_linear_230_10" x1="29.7331" y1="-8.1059" x2="0.269641" y2="76.8774" gradientUnits="userSpaceOnUse">
<stop offset="0.100599" stop-color="#0D2D9E"/>
<stop offset="0.492519" stop-color="#445D9A"/>
<stop offset="0.798907" stop-color="#EF0505"/>
</linearGradient>
<linearGradient id="paint17_linear_230_10" x1="29.7331" y1="-8.1059" x2="0.269641" y2="76.8774" gradientUnits="userSpaceOnUse">
<stop offset="0.100599" stop-color="#0D2D9E"/>
<stop offset="0.492519" stop-color="#445D9A"/>
<stop offset="0.798907" stop-color="#EF0505"/>
</linearGradient>
<linearGradient id="paint18_linear_230_10" x1="92.0074" y1="102.173" x2="-0.19246" y2="78.9242" gradientUnits="userSpaceOnUse">
<stop offset="0.201328" stop-color="#9E41BF"/>
<stop offset="0.623502" stop-color="#0012B2"/>
<stop offset="0.881237" stop-color="#04B335"/>
</linearGradient>
<linearGradient id="paint19_linear_230_10" x1="92.0074" y1="102.173" x2="-0.19246" y2="78.9242" gradientUnits="userSpaceOnUse">
<stop offset="0.201328" stop-color="#9E41BF"/>
<stop offset="0.623502" stop-color="#0012B2"/>
<stop offset="0.881237" stop-color="#04B335"/>
</linearGradient>
<linearGradient id="paint20_linear_230_10" x1="92.0074" y1="102.173" x2="-0.19246" y2="78.9242" gradientUnits="userSpaceOnUse">
<stop offset="0.201328" stop-color="#9E41BF"/>
<stop offset="0.623502" stop-color="#0012B2"/>
<stop offset="0.881237" stop-color="#04B335"/>
</linearGradient>
<linearGradient id="paint21_linear_230_10" x1="92.0074" y1="102.173" x2="-0.19246" y2="78.9242" gradientUnits="userSpaceOnUse">
<stop offset="0.201328" stop-color="#9E41BF"/>
<stop offset="0.623502" stop-color="#0012B2"/>
<stop offset="0.881237" stop-color="#04B335"/>
</linearGradient>
<linearGradient id="paint22_linear_230_10" x1="92.0074" y1="102.173" x2="-0.19246" y2="78.9242" gradientUnits="userSpaceOnUse">
<stop offset="0.201328" stop-color="#9E41BF"/>
<stop offset="0.623502" stop-color="#0012B2"/>
<stop offset="0.881237" stop-color="#04B335"/>
</linearGradient>
<linearGradient id="paint23_linear_230_10" x1="92.0074" y1="102.173" x2="-0.19246" y2="78.9242" gradientUnits="userSpaceOnUse">
<stop offset="0.201328" stop-color="#9E41BF"/>
<stop offset="0.623502" stop-color="#0012B2"/>
<stop offset="0.881237" stop-color="#04B335"/>
</linearGradient>
<linearGradient id="paint24_linear_230_10" x1="92.0074" y1="102.173" x2="-0.19246" y2="78.9242" gradientUnits="userSpaceOnUse">
<stop offset="0.201328" stop-color="#9E41BF"/>
<stop offset="0.623502" stop-color="#0012B2"/>
<stop offset="0.881237" stop-color="#04B335"/>
</linearGradient>
<linearGradient id="paint25_linear_230_10" x1="92.0074" y1="102.173" x2="-0.19246" y2="78.9242" gradientUnits="userSpaceOnUse">
<stop offset="0.201328" stop-color="#9E41BF"/>
<stop offset="0.623502" stop-color="#0012B2"/>
<stop offset="0.881237" stop-color="#04B335"/>
</linearGradient>
<linearGradient id="paint26_linear_230_10" x1="92.0074" y1="102.173" x2="-0.19246" y2="78.9242" gradientUnits="userSpaceOnUse">
<stop offset="0.201328" stop-color="#9E41BF"/>
<stop offset="0.623502" stop-color="#0012B2"/>
<stop offset="0.881237" stop-color="#04B335"/>
</linearGradient>
</defs>
</svg>
